%TF.GenerationSoftware,KiCad,Pcbnew,8.0.2-8.0.2-0~ubuntu22.04.1*%
%TF.CreationDate,2024-05-29T19:46:19+02:00*%
%TF.ProjectId,nrf51_devboard,6e726635-315f-4646-9576-626f6172642e,0.1*%
%TF.SameCoordinates,Original*%
%TF.FileFunction,Copper,L2,Bot*%
%TF.FilePolarity,Positive*%
%FSLAX46Y46*%
G04 Gerber Fmt 4.6, Leading zero omitted, Abs format (unit mm)*
G04 Created by KiCad (PCBNEW 8.0.2-8.0.2-0~ubuntu22.04.1) date 2024-05-29 19:46:19*
%MOMM*%
%LPD*%
G01*
G04 APERTURE LIST*
%TA.AperFunction,ComponentPad*%
%ADD10R,1.700000X1.700000*%
%TD*%
%TA.AperFunction,ComponentPad*%
%ADD11O,1.700000X1.700000*%
%TD*%
G04 APERTURE END LIST*
D10*
%TO.P,J1,1,Pin_1*%
%TO.N,+3.3V*%
X93980000Y-63500000D03*
D11*
%TO.P,J1,2,Pin_2*%
%TO.N,GND*%
X93980000Y-60960000D03*
%TO.P,J1,3,Pin_3*%
%TO.N,Net-(J1-Pin_3)*%
X93980000Y-58420000D03*
%TO.P,J1,4,Pin_4*%
%TO.N,Net-(J1-Pin_4)*%
X93980000Y-55880000D03*
%TO.P,J1,5,Pin_5*%
%TO.N,Net-(J1-Pin_5)*%
X93980000Y-53340000D03*
%TO.P,J1,6,Pin_6*%
%TO.N,Net-(J1-Pin_6)*%
X93980000Y-50800000D03*
%TD*%
D10*
%TO.P,J2,1,Pin_1*%
%TO.N,Net-(J2-Pin_1)*%
X118110000Y-63500000D03*
D11*
%TO.P,J2,2,Pin_2*%
%TO.N,Net-(J2-Pin_2)*%
X118110000Y-60960000D03*
%TO.P,J2,3,Pin_3*%
%TO.N,Net-(J2-Pin_3)*%
X118110000Y-58420000D03*
%TO.P,J2,4,Pin_4*%
%TO.N,Net-(J2-Pin_4)*%
X118110000Y-55880000D03*
%TO.P,J2,5,Pin_5*%
%TO.N,Net-(J2-Pin_5)*%
X118110000Y-53340000D03*
%TO.P,J2,6,Pin_6*%
%TO.N,GND*%
X118110000Y-50800000D03*
%TD*%
%TA.AperFunction,Conductor*%
%TO.N,GND*%
G36*
X101053539Y-48519685D02*
G01*
X101099294Y-48572489D01*
X101110500Y-48624000D01*
X101110500Y-48990000D01*
X110254500Y-48990000D01*
X110254500Y-48624000D01*
X110274185Y-48556961D01*
X110326989Y-48511206D01*
X110378500Y-48500000D01*
X119876000Y-48500000D01*
X119943039Y-48519685D01*
X119988794Y-48572489D01*
X120000000Y-48624000D01*
X120000000Y-69876000D01*
X119980315Y-69943039D01*
X119927511Y-69988794D01*
X119876000Y-70000000D01*
X92124000Y-70000000D01*
X92056961Y-69980315D01*
X92011206Y-69927511D01*
X92000000Y-69876000D01*
X92000000Y-50799999D01*
X92624341Y-50799999D01*
X92624341Y-50800000D01*
X92644936Y-51035403D01*
X92644938Y-51035413D01*
X92706094Y-51263655D01*
X92706096Y-51263659D01*
X92706097Y-51263663D01*
X92805847Y-51477578D01*
X92805965Y-51477830D01*
X92805967Y-51477834D01*
X92941501Y-51671395D01*
X92941506Y-51671402D01*
X93108597Y-51838493D01*
X93108603Y-51838498D01*
X93294158Y-51968425D01*
X93337783Y-52023002D01*
X93344977Y-52092500D01*
X93313454Y-52154855D01*
X93294158Y-52171575D01*
X93108597Y-52301505D01*
X92941505Y-52468597D01*
X92805965Y-52662169D01*
X92805964Y-52662171D01*
X92706098Y-52876335D01*
X92706094Y-52876344D01*
X92644938Y-53104586D01*
X92644936Y-53104596D01*
X92624341Y-53339999D01*
X92624341Y-53340000D01*
X92644936Y-53575403D01*
X92644938Y-53575413D01*
X92706094Y-53803655D01*
X92706096Y-53803659D01*
X92706097Y-53803663D01*
X92805965Y-54017830D01*
X92805967Y-54017834D01*
X92941501Y-54211395D01*
X92941506Y-54211402D01*
X93108597Y-54378493D01*
X93108603Y-54378498D01*
X93294158Y-54508425D01*
X93337783Y-54563002D01*
X93344977Y-54632500D01*
X93313454Y-54694855D01*
X93294158Y-54711575D01*
X93108597Y-54841505D01*
X92941505Y-55008597D01*
X92805965Y-55202169D01*
X92805964Y-55202171D01*
X92706098Y-55416335D01*
X92706094Y-55416344D01*
X92644938Y-55644586D01*
X92644936Y-55644596D01*
X92624341Y-55879999D01*
X92624341Y-55880000D01*
X92644936Y-56115403D01*
X92644938Y-56115413D01*
X92706094Y-56343655D01*
X92706096Y-56343659D01*
X92706097Y-56343663D01*
X92805965Y-56557830D01*
X92805967Y-56557834D01*
X92941501Y-56751395D01*
X92941506Y-56751402D01*
X93108597Y-56918493D01*
X93108603Y-56918498D01*
X93294158Y-57048425D01*
X93337783Y-57103002D01*
X93344977Y-57172500D01*
X93313454Y-57234855D01*
X93294158Y-57251575D01*
X93108597Y-57381505D01*
X92941505Y-57548597D01*
X92805965Y-57742169D01*
X92805964Y-57742171D01*
X92706098Y-57956335D01*
X92706094Y-57956344D01*
X92644938Y-58184586D01*
X92644936Y-58184596D01*
X92624341Y-58419999D01*
X92624341Y-58420000D01*
X92644936Y-58655403D01*
X92644938Y-58655413D01*
X92706094Y-58883655D01*
X92706096Y-58883659D01*
X92706097Y-58883663D01*
X92805965Y-59097830D01*
X92805967Y-59097834D01*
X92941501Y-59291395D01*
X92941506Y-59291402D01*
X93108597Y-59458493D01*
X93108603Y-59458498D01*
X93294594Y-59588730D01*
X93338219Y-59643307D01*
X93345413Y-59712805D01*
X93313890Y-59775160D01*
X93294595Y-59791880D01*
X93108922Y-59921890D01*
X93108920Y-59921891D01*
X92941891Y-60088920D01*
X92941886Y-60088926D01*
X92806400Y-60282420D01*
X92806399Y-60282422D01*
X92706570Y-60496507D01*
X92706567Y-60496513D01*
X92649364Y-60709999D01*
X92649364Y-60710000D01*
X93546988Y-60710000D01*
X93514075Y-60767007D01*
X93480000Y-60894174D01*
X93480000Y-61025826D01*
X93514075Y-61152993D01*
X93546988Y-61210000D01*
X92649364Y-61210000D01*
X92706567Y-61423486D01*
X92706570Y-61423492D01*
X92806399Y-61637578D01*
X92941894Y-61831082D01*
X93063946Y-61953134D01*
X93097431Y-62014457D01*
X93092447Y-62084149D01*
X93050575Y-62140082D01*
X93019598Y-62156997D01*
X92887671Y-62206202D01*
X92887664Y-62206206D01*
X92772455Y-62292452D01*
X92772452Y-62292455D01*
X92686206Y-62407664D01*
X92686202Y-62407671D01*
X92635908Y-62542517D01*
X92629501Y-62602116D01*
X92629501Y-62602123D01*
X92629500Y-62602135D01*
X92629500Y-64397870D01*
X92629501Y-64397876D01*
X92635908Y-64457483D01*
X92686202Y-64592328D01*
X92686206Y-64592335D01*
X92772452Y-64707544D01*
X92772455Y-64707547D01*
X92887664Y-64793793D01*
X92887671Y-64793797D01*
X93022517Y-64844091D01*
X93022516Y-64844091D01*
X93029444Y-64844835D01*
X93082127Y-64850500D01*
X94877872Y-64850499D01*
X94937483Y-64844091D01*
X95072331Y-64793796D01*
X95187546Y-64707546D01*
X95273796Y-64592331D01*
X95324091Y-64457483D01*
X95330500Y-64397873D01*
X95330499Y-62602128D01*
X95324091Y-62542517D01*
X95273796Y-62407669D01*
X95273795Y-62407668D01*
X95273793Y-62407664D01*
X95187547Y-62292455D01*
X95187544Y-62292452D01*
X95072335Y-62206206D01*
X95072328Y-62206202D01*
X94940401Y-62156997D01*
X94884467Y-62115126D01*
X94860050Y-62049662D01*
X94874902Y-61981389D01*
X94896053Y-61953133D01*
X95018108Y-61831078D01*
X95153600Y-61637578D01*
X95253429Y-61423492D01*
X95253432Y-61423486D01*
X95310636Y-61210000D01*
X94413012Y-61210000D01*
X94445925Y-61152993D01*
X94480000Y-61025826D01*
X94480000Y-60894174D01*
X94445925Y-60767007D01*
X94413012Y-60710000D01*
X95310636Y-60710000D01*
X95310635Y-60709999D01*
X95253432Y-60496513D01*
X95253429Y-60496507D01*
X95153600Y-60282422D01*
X95153599Y-60282420D01*
X95018113Y-60088926D01*
X95018108Y-60088920D01*
X94851078Y-59921890D01*
X94665405Y-59791879D01*
X94621780Y-59737302D01*
X94614588Y-59667804D01*
X94646110Y-59605449D01*
X94665406Y-59588730D01*
X94665842Y-59588425D01*
X94851401Y-59458495D01*
X95018495Y-59291401D01*
X95154035Y-59097830D01*
X95253903Y-58883663D01*
X95315063Y-58655408D01*
X95335659Y-58420000D01*
X95315063Y-58184592D01*
X95253903Y-57956337D01*
X95154035Y-57742171D01*
X95018495Y-57548599D01*
X95018494Y-57548597D01*
X94851402Y-57381506D01*
X94851396Y-57381501D01*
X94665842Y-57251575D01*
X94622217Y-57196998D01*
X94615023Y-57127500D01*
X94646546Y-57065145D01*
X94665842Y-57048425D01*
X94688026Y-57032891D01*
X94851401Y-56918495D01*
X95018495Y-56751401D01*
X95154035Y-56557830D01*
X95253903Y-56343663D01*
X95315063Y-56115408D01*
X95335659Y-55880000D01*
X95315063Y-55644592D01*
X95253903Y-55416337D01*
X95154035Y-55202171D01*
X95018495Y-55008599D01*
X95018494Y-55008597D01*
X94851402Y-54841506D01*
X94851396Y-54841501D01*
X94665842Y-54711575D01*
X94622217Y-54656998D01*
X94615023Y-54587500D01*
X94646546Y-54525145D01*
X94665842Y-54508425D01*
X94688026Y-54492891D01*
X94851401Y-54378495D01*
X95018495Y-54211401D01*
X95154035Y-54017830D01*
X95253903Y-53803663D01*
X95315063Y-53575408D01*
X95335659Y-53340000D01*
X95335659Y-53339999D01*
X116754341Y-53339999D01*
X116754341Y-53340000D01*
X116774936Y-53575403D01*
X116774938Y-53575413D01*
X116836094Y-53803655D01*
X116836096Y-53803659D01*
X116836097Y-53803663D01*
X116935965Y-54017830D01*
X116935967Y-54017834D01*
X117071501Y-54211395D01*
X117071506Y-54211402D01*
X117238597Y-54378493D01*
X117238603Y-54378498D01*
X117424158Y-54508425D01*
X117467783Y-54563002D01*
X117474977Y-54632500D01*
X117443454Y-54694855D01*
X117424158Y-54711575D01*
X117238597Y-54841505D01*
X117071505Y-55008597D01*
X116935965Y-55202169D01*
X116935964Y-55202171D01*
X116836098Y-55416335D01*
X116836094Y-55416344D01*
X116774938Y-55644586D01*
X116774936Y-55644596D01*
X116754341Y-55879999D01*
X116754341Y-55880000D01*
X116774936Y-56115403D01*
X116774938Y-56115413D01*
X116836094Y-56343655D01*
X116836096Y-56343659D01*
X116836097Y-56343663D01*
X116935965Y-56557830D01*
X116935967Y-56557834D01*
X117071501Y-56751395D01*
X117071506Y-56751402D01*
X117238597Y-56918493D01*
X117238603Y-56918498D01*
X117424158Y-57048425D01*
X117467783Y-57103002D01*
X117474977Y-57172500D01*
X117443454Y-57234855D01*
X117424158Y-57251575D01*
X117238597Y-57381505D01*
X117071505Y-57548597D01*
X116935965Y-57742169D01*
X116935964Y-57742171D01*
X116836098Y-57956335D01*
X116836094Y-57956344D01*
X116774938Y-58184586D01*
X116774936Y-58184596D01*
X116754341Y-58419999D01*
X116754341Y-58420000D01*
X116774936Y-58655403D01*
X116774938Y-58655413D01*
X116836094Y-58883655D01*
X116836096Y-58883659D01*
X116836097Y-58883663D01*
X116935965Y-59097830D01*
X116935967Y-59097834D01*
X117071501Y-59291395D01*
X117071506Y-59291402D01*
X117238597Y-59458493D01*
X117238603Y-59458498D01*
X117424158Y-59588425D01*
X117467783Y-59643002D01*
X117474977Y-59712500D01*
X117443454Y-59774855D01*
X117424158Y-59791575D01*
X117238597Y-59921505D01*
X117071505Y-60088597D01*
X116935965Y-60282169D01*
X116935964Y-60282171D01*
X116836098Y-60496335D01*
X116836094Y-60496344D01*
X116774938Y-60724586D01*
X116774936Y-60724596D01*
X116754341Y-60959999D01*
X116754341Y-60960000D01*
X116774936Y-61195403D01*
X116774938Y-61195413D01*
X116836094Y-61423655D01*
X116836096Y-61423659D01*
X116836097Y-61423663D01*
X116935847Y-61637578D01*
X116935965Y-61637830D01*
X116935967Y-61637834D01*
X117044281Y-61792521D01*
X117071501Y-61831396D01*
X117071506Y-61831402D01*
X117193430Y-61953326D01*
X117226915Y-62014649D01*
X117221931Y-62084341D01*
X117180059Y-62140274D01*
X117149083Y-62157189D01*
X117017669Y-62206203D01*
X117017664Y-62206206D01*
X116902455Y-62292452D01*
X116902452Y-62292455D01*
X116816206Y-62407664D01*
X116816202Y-62407671D01*
X116765908Y-62542517D01*
X116759501Y-62602116D01*
X116759501Y-62602123D01*
X116759500Y-62602135D01*
X116759500Y-64397870D01*
X116759501Y-64397876D01*
X116765908Y-64457483D01*
X116816202Y-64592328D01*
X116816206Y-64592335D01*
X116902452Y-64707544D01*
X116902455Y-64707547D01*
X117017664Y-64793793D01*
X117017671Y-64793797D01*
X117152517Y-64844091D01*
X117152516Y-64844091D01*
X117159444Y-64844835D01*
X117212127Y-64850500D01*
X119007872Y-64850499D01*
X119067483Y-64844091D01*
X119202331Y-64793796D01*
X119317546Y-64707546D01*
X119403796Y-64592331D01*
X119454091Y-64457483D01*
X119460500Y-64397873D01*
X119460499Y-62602128D01*
X119454091Y-62542517D01*
X119403796Y-62407669D01*
X119403795Y-62407668D01*
X119403793Y-62407664D01*
X119317547Y-62292455D01*
X119317544Y-62292452D01*
X119202335Y-62206206D01*
X119202328Y-62206202D01*
X119070917Y-62157189D01*
X119014983Y-62115318D01*
X118990566Y-62049853D01*
X119005418Y-61981580D01*
X119026563Y-61953332D01*
X119148495Y-61831401D01*
X119284035Y-61637830D01*
X119383903Y-61423663D01*
X119445063Y-61195408D01*
X119465659Y-60960000D01*
X119445063Y-60724592D01*
X119383903Y-60496337D01*
X119284035Y-60282171D01*
X119148495Y-60088599D01*
X119148494Y-60088597D01*
X118981402Y-59921506D01*
X118981396Y-59921501D01*
X118795842Y-59791575D01*
X118752217Y-59736998D01*
X118745023Y-59667500D01*
X118776546Y-59605145D01*
X118795842Y-59588425D01*
X118818026Y-59572891D01*
X118981401Y-59458495D01*
X119148495Y-59291401D01*
X119284035Y-59097830D01*
X119383903Y-58883663D01*
X119445063Y-58655408D01*
X119465659Y-58420000D01*
X119445063Y-58184592D01*
X119383903Y-57956337D01*
X119284035Y-57742171D01*
X119148495Y-57548599D01*
X119148494Y-57548597D01*
X118981402Y-57381506D01*
X118981396Y-57381501D01*
X118795842Y-57251575D01*
X118752217Y-57196998D01*
X118745023Y-57127500D01*
X118776546Y-57065145D01*
X118795842Y-57048425D01*
X118818026Y-57032891D01*
X118981401Y-56918495D01*
X119148495Y-56751401D01*
X119284035Y-56557830D01*
X119383903Y-56343663D01*
X119445063Y-56115408D01*
X119465659Y-55880000D01*
X119445063Y-55644592D01*
X119383903Y-55416337D01*
X119284035Y-55202171D01*
X119148495Y-55008599D01*
X119148494Y-55008597D01*
X118981402Y-54841506D01*
X118981396Y-54841501D01*
X118795842Y-54711575D01*
X118752217Y-54656998D01*
X118745023Y-54587500D01*
X118776546Y-54525145D01*
X118795842Y-54508425D01*
X118818026Y-54492891D01*
X118981401Y-54378495D01*
X119148495Y-54211401D01*
X119284035Y-54017830D01*
X119383903Y-53803663D01*
X119445063Y-53575408D01*
X119465659Y-53340000D01*
X119445063Y-53104592D01*
X119383903Y-52876337D01*
X119284035Y-52662171D01*
X119148495Y-52468599D01*
X119148494Y-52468597D01*
X118981402Y-52301506D01*
X118981401Y-52301505D01*
X118795405Y-52171269D01*
X118751781Y-52116692D01*
X118744588Y-52047193D01*
X118776110Y-51984839D01*
X118795405Y-51968119D01*
X118981082Y-51838105D01*
X119148105Y-51671082D01*
X119283600Y-51477578D01*
X119383429Y-51263492D01*
X119383432Y-51263486D01*
X119440636Y-51050000D01*
X118543012Y-51050000D01*
X118575925Y-50992993D01*
X118610000Y-50865826D01*
X118610000Y-50734174D01*
X118575925Y-50607007D01*
X118543012Y-50550000D01*
X119440636Y-50550000D01*
X119440635Y-50549999D01*
X119383432Y-50336513D01*
X119383429Y-50336507D01*
X119283600Y-50122422D01*
X119283599Y-50122420D01*
X119148113Y-49928926D01*
X119148108Y-49928920D01*
X118981082Y-49761894D01*
X118787578Y-49626399D01*
X118573492Y-49526570D01*
X118573486Y-49526567D01*
X118360000Y-49469364D01*
X118360000Y-50366988D01*
X118302993Y-50334075D01*
X118175826Y-50300000D01*
X118044174Y-50300000D01*
X117917007Y-50334075D01*
X117860000Y-50366988D01*
X117860000Y-49469364D01*
X117859999Y-49469364D01*
X117646513Y-49526567D01*
X117646507Y-49526570D01*
X117432422Y-49626399D01*
X117432420Y-49626400D01*
X117238926Y-49761886D01*
X117238920Y-49761891D01*
X117071891Y-49928920D01*
X117071886Y-49928926D01*
X116936400Y-50122420D01*
X116936399Y-50122422D01*
X116836570Y-50336507D01*
X116836567Y-50336513D01*
X116779364Y-50549999D01*
X116779364Y-50550000D01*
X117676988Y-50550000D01*
X117644075Y-50607007D01*
X117610000Y-50734174D01*
X117610000Y-50865826D01*
X117644075Y-50992993D01*
X117676988Y-51050000D01*
X116779364Y-51050000D01*
X116836567Y-51263486D01*
X116836570Y-51263492D01*
X116936399Y-51477578D01*
X117071894Y-51671082D01*
X117238917Y-51838105D01*
X117424595Y-51968119D01*
X117468219Y-52022696D01*
X117475412Y-52092195D01*
X117443890Y-52154549D01*
X117424595Y-52171269D01*
X117238594Y-52301508D01*
X117071505Y-52468597D01*
X116935965Y-52662169D01*
X116935964Y-52662171D01*
X116836098Y-52876335D01*
X116836094Y-52876344D01*
X116774938Y-53104586D01*
X116774936Y-53104596D01*
X116754341Y-53339999D01*
X95335659Y-53339999D01*
X95315063Y-53104592D01*
X95253903Y-52876337D01*
X95154035Y-52662171D01*
X95018495Y-52468599D01*
X95018494Y-52468597D01*
X94851402Y-52301506D01*
X94851396Y-52301501D01*
X94665842Y-52171575D01*
X94622217Y-52116998D01*
X94615023Y-52047500D01*
X94646546Y-51985145D01*
X94665842Y-51968425D01*
X94688026Y-51952891D01*
X94851401Y-51838495D01*
X95018495Y-51671401D01*
X95154035Y-51477830D01*
X95253903Y-51263663D01*
X95315063Y-51035408D01*
X95335659Y-50800000D01*
X95315063Y-50564592D01*
X95253903Y-50336337D01*
X95154035Y-50122171D01*
X95018495Y-49928599D01*
X95018494Y-49928597D01*
X94851402Y-49761506D01*
X94851395Y-49761501D01*
X94657834Y-49625967D01*
X94657830Y-49625965D01*
X94657828Y-49625964D01*
X94443663Y-49526097D01*
X94443659Y-49526096D01*
X94443655Y-49526094D01*
X94215413Y-49464938D01*
X94215403Y-49464936D01*
X93980001Y-49444341D01*
X93979999Y-49444341D01*
X93744596Y-49464936D01*
X93744586Y-49464938D01*
X93516344Y-49526094D01*
X93516335Y-49526098D01*
X93302171Y-49625964D01*
X93302169Y-49625965D01*
X93108597Y-49761505D01*
X92941505Y-49928597D01*
X92805965Y-50122169D01*
X92805964Y-50122171D01*
X92706098Y-50336335D01*
X92706094Y-50336344D01*
X92644938Y-50564586D01*
X92644936Y-50564596D01*
X92624341Y-50799999D01*
X92000000Y-50799999D01*
X92000000Y-48624000D01*
X92019685Y-48556961D01*
X92072489Y-48511206D01*
X92124000Y-48500000D01*
X100986500Y-48500000D01*
X101053539Y-48519685D01*
G37*
%TD.AperFunction*%
%TD*%
M02*
