%TF.GenerationSoftware,KiCad,Pcbnew,8.0.2-8.0.2-0~ubuntu22.04.1*%
%TF.CreationDate,2024-05-29T19:46:19+02:00*%
%TF.ProjectId,nrf51_devboard,6e726635-315f-4646-9576-626f6172642e,0.1*%
%TF.SameCoordinates,Original*%
%TF.FileFunction,Copper,L1,Top*%
%TF.FilePolarity,Positive*%
%FSLAX46Y46*%
G04 Gerber Fmt 4.6, Leading zero omitted, Abs format (unit mm)*
G04 Created by KiCad (PCBNEW 8.0.2-8.0.2-0~ubuntu22.04.1) date 2024-05-29 19:46:19*
%MOMM*%
%LPD*%
G01*
G04 APERTURE LIST*
G04 Aperture macros list*
%AMRoundRect*
0 Rectangle with rounded corners*
0 $1 Rounding radius*
0 $2 $3 $4 $5 $6 $7 $8 $9 X,Y pos of 4 corners*
0 Add a 4 corners polygon primitive as box body*
4,1,4,$2,$3,$4,$5,$6,$7,$8,$9,$2,$3,0*
0 Add four circle primitives for the rounded corners*
1,1,$1+$1,$2,$3*
1,1,$1+$1,$4,$5*
1,1,$1+$1,$6,$7*
1,1,$1+$1,$8,$9*
0 Add four rect primitives between the rounded corners*
20,1,$1+$1,$2,$3,$4,$5,0*
20,1,$1+$1,$4,$5,$6,$7,0*
20,1,$1+$1,$6,$7,$8,$9,0*
20,1,$1+$1,$8,$9,$2,$3,0*%
G04 Aperture macros list end*
%TA.AperFunction,ComponentPad*%
%ADD10R,1.700000X1.700000*%
%TD*%
%TA.AperFunction,ComponentPad*%
%ADD11O,1.700000X1.700000*%
%TD*%
%TA.AperFunction,SMDPad,CuDef*%
%ADD12RoundRect,0.237500X0.250000X0.237500X-0.250000X0.237500X-0.250000X-0.237500X0.250000X-0.237500X0*%
%TD*%
%TA.AperFunction,SMDPad,CuDef*%
%ADD13R,0.500000X1.270000*%
%TD*%
%TA.AperFunction,SMDPad,CuDef*%
%ADD14R,1.270000X0.500000*%
%TD*%
%TA.AperFunction,SMDPad,CuDef*%
%ADD15RoundRect,0.237500X-0.287500X-0.237500X0.287500X-0.237500X0.287500X0.237500X-0.287500X0.237500X0*%
%TD*%
%TA.AperFunction,Conductor*%
%ADD16C,0.400000*%
%TD*%
G04 APERTURE END LIST*
D10*
%TO.P,J1,1,Pin_1*%
%TO.N,+3.3V*%
X93980000Y-63500000D03*
D11*
%TO.P,J1,2,Pin_2*%
%TO.N,GND*%
X93980000Y-60960000D03*
%TO.P,J1,3,Pin_3*%
%TO.N,Net-(J1-Pin_3)*%
X93980000Y-58420000D03*
%TO.P,J1,4,Pin_4*%
%TO.N,Net-(J1-Pin_4)*%
X93980000Y-55880000D03*
%TO.P,J1,5,Pin_5*%
%TO.N,Net-(J1-Pin_5)*%
X93980000Y-53340000D03*
%TO.P,J1,6,Pin_6*%
%TO.N,Net-(J1-Pin_6)*%
X93980000Y-50800000D03*
%TD*%
D12*
%TO.P,R1,1*%
%TO.N,Net-(J2-Pin_3)*%
X109500000Y-68000000D03*
%TO.P,R1,2*%
%TO.N,Net-(D1-A)*%
X107675000Y-68000000D03*
%TD*%
D10*
%TO.P,J2,1,Pin_1*%
%TO.N,Net-(J2-Pin_1)*%
X118110000Y-63500000D03*
D11*
%TO.P,J2,2,Pin_2*%
%TO.N,Net-(J2-Pin_2)*%
X118110000Y-60960000D03*
%TO.P,J2,3,Pin_3*%
%TO.N,Net-(J2-Pin_3)*%
X118110000Y-58420000D03*
%TO.P,J2,4,Pin_4*%
%TO.N,Net-(J2-Pin_4)*%
X118110000Y-55880000D03*
%TO.P,J2,5,Pin_5*%
%TO.N,Net-(J2-Pin_5)*%
X118110000Y-53340000D03*
%TO.P,J2,6,Pin_6*%
%TO.N,GND*%
X118110000Y-50800000D03*
%TD*%
D13*
%TO.P,U1,1,VCC*%
%TO.N,+3.3V*%
X102154500Y-63390000D03*
%TO.P,U1,2,GND*%
%TO.N,GND*%
X103154500Y-63390000D03*
%TO.P,U1,3,P0.01*%
%TO.N,Net-(J1-Pin_3)*%
X104154500Y-63390000D03*
%TO.P,U1,4,P0.02*%
%TO.N,Net-(J1-Pin_4)*%
X105154500Y-63390000D03*
%TO.P,U1,5,P0.03*%
%TO.N,Net-(J1-Pin_5)*%
X106154500Y-63390000D03*
%TO.P,U1,6,P0.04*%
%TO.N,Net-(J1-Pin_6)*%
X107154500Y-63390000D03*
D14*
%TO.P,U1,7,P0.09*%
%TO.N,Net-(J2-Pin_1)*%
X110254500Y-60390000D03*
%TO.P,U1,8,P0.10*%
%TO.N,Net-(J2-Pin_2)*%
X110254500Y-59390000D03*
%TO.P,U1,9,P0.13*%
%TO.N,Net-(J2-Pin_3)*%
X110254500Y-58390000D03*
%TO.P,U1,10,SWDIO*%
%TO.N,Net-(J2-Pin_4)*%
X110254500Y-57390000D03*
%TO.P,U1,11,SWDCLK*%
%TO.N,Net-(J2-Pin_5)*%
X110254500Y-56390000D03*
%TO.P,U1,12,GND*%
%TO.N,GND*%
X110254500Y-50490000D03*
%TO.P,U1,13,GND*%
X110254500Y-49340000D03*
%TD*%
D15*
%TO.P,D1,1,K*%
%TO.N,GND*%
X102625000Y-68000000D03*
%TO.P,D1,2,A*%
%TO.N,Net-(D1-A)*%
X104375000Y-68000000D03*
%TD*%
D16*
%TO.N,Net-(J1-Pin_5)*%
X98840000Y-53340000D02*
X93980000Y-53340000D01*
X106154500Y-60654500D02*
X98840000Y-53340000D01*
X106154500Y-63390000D02*
X106154500Y-60654500D01*
%TO.N,Net-(J1-Pin_4)*%
X105154500Y-63390000D02*
X105154500Y-61154500D01*
X99880000Y-55880000D02*
X93980000Y-55880000D01*
X105154500Y-61154500D02*
X99880000Y-55880000D01*
%TO.N,Net-(J1-Pin_3)*%
X104154500Y-63390000D02*
X104154500Y-61503028D01*
X104154500Y-61503028D02*
X101071472Y-58420000D01*
X101071472Y-58420000D02*
X93980000Y-58420000D01*
%TO.N,Net-(J1-Pin_6)*%
X107154500Y-63390000D02*
X107154500Y-60154500D01*
X107154500Y-60154500D02*
X97800000Y-50800000D01*
X97800000Y-50800000D02*
X93980000Y-50800000D01*
%TO.N,Net-(J2-Pin_4)*%
X110254500Y-57390000D02*
X116600000Y-57390000D01*
X116600000Y-57390000D02*
X118110000Y-55880000D01*
%TO.N,Net-(J2-Pin_3)*%
X108500000Y-59000000D02*
X108500000Y-66000000D01*
X109110000Y-58390000D02*
X108500000Y-59000000D01*
X110254500Y-58390000D02*
X109110000Y-58390000D01*
X118080000Y-58390000D02*
X118110000Y-58420000D01*
X109500000Y-67000000D02*
X109500000Y-68000000D01*
X108500000Y-66000000D02*
X109500000Y-67000000D01*
X110254500Y-58390000D02*
X118080000Y-58390000D01*
%TO.N,Net-(J2-Pin_2)*%
X116540000Y-59390000D02*
X118110000Y-60960000D01*
X110254500Y-59390000D02*
X116540000Y-59390000D01*
%TO.N,Net-(J2-Pin_5)*%
X115060000Y-56390000D02*
X118110000Y-53340000D01*
X110254500Y-56390000D02*
X115060000Y-56390000D01*
%TO.N,Net-(J2-Pin_1)*%
X115000000Y-60390000D02*
X118110000Y-63500000D01*
X110254500Y-60390000D02*
X115000000Y-60390000D01*
%TO.N,Net-(D1-A)*%
X107675000Y-68000000D02*
X104375000Y-68000000D01*
%TO.N,+3.3V*%
X102154500Y-63390000D02*
X94090000Y-63390000D01*
X94090000Y-63390000D02*
X93980000Y-63500000D01*
%TD*%
%TA.AperFunction,Conductor*%
%TO.N,GND*%
G36*
X101053539Y-48519685D02*
G01*
X101099294Y-48572489D01*
X101110500Y-48624000D01*
X101110500Y-48990000D01*
X102130500Y-48990000D01*
X102197539Y-49009685D01*
X102243294Y-49062489D01*
X102254500Y-49114000D01*
X102254500Y-51890000D01*
X108254500Y-51890000D01*
X108254500Y-50787844D01*
X109119500Y-50787844D01*
X109125901Y-50847372D01*
X109125903Y-50847379D01*
X109176145Y-50982086D01*
X109176149Y-50982093D01*
X109262309Y-51097187D01*
X109262312Y-51097190D01*
X109377406Y-51183350D01*
X109377413Y-51183354D01*
X109512120Y-51233596D01*
X109512127Y-51233598D01*
X109571655Y-51239999D01*
X109571672Y-51240000D01*
X110004500Y-51240000D01*
X110504500Y-51240000D01*
X110937328Y-51240000D01*
X110937344Y-51239999D01*
X110996872Y-51233598D01*
X110996879Y-51233596D01*
X111131586Y-51183354D01*
X111131593Y-51183350D01*
X111246687Y-51097190D01*
X111246690Y-51097187D01*
X111332850Y-50982093D01*
X111332854Y-50982086D01*
X111383096Y-50847379D01*
X111383098Y-50847372D01*
X111389499Y-50787844D01*
X111389500Y-50787827D01*
X111389500Y-50740000D01*
X110504500Y-50740000D01*
X110504500Y-51240000D01*
X110004500Y-51240000D01*
X110004500Y-50740000D01*
X109119500Y-50740000D01*
X109119500Y-50787844D01*
X108254500Y-50787844D01*
X108254500Y-49637844D01*
X109119500Y-49637844D01*
X109125901Y-49697372D01*
X109125903Y-49697379D01*
X109176145Y-49832086D01*
X109176148Y-49832091D01*
X109182587Y-49840693D01*
X109207001Y-49906158D01*
X109192147Y-49974431D01*
X109182587Y-49989307D01*
X109176148Y-49997908D01*
X109176145Y-49997913D01*
X109125903Y-50132620D01*
X109125901Y-50132627D01*
X109119500Y-50192155D01*
X109119500Y-50240000D01*
X110004500Y-50240000D01*
X110504500Y-50240000D01*
X111389500Y-50240000D01*
X111389500Y-50192172D01*
X111389499Y-50192155D01*
X111383098Y-50132627D01*
X111383097Y-50132623D01*
X111332851Y-49997908D01*
X111326417Y-49989314D01*
X111301997Y-49923850D01*
X111316847Y-49855577D01*
X111326417Y-49840686D01*
X111332851Y-49832091D01*
X111383097Y-49697376D01*
X111383098Y-49697372D01*
X111389499Y-49637844D01*
X111389500Y-49637827D01*
X111389500Y-49590000D01*
X110504500Y-49590000D01*
X110504500Y-50240000D01*
X110004500Y-50240000D01*
X110004500Y-49590000D01*
X109119500Y-49590000D01*
X109119500Y-49637844D01*
X108254500Y-49637844D01*
X108254500Y-49114000D01*
X108274185Y-49046961D01*
X108326989Y-49001206D01*
X108378500Y-48990000D01*
X108995500Y-48990000D01*
X109062539Y-49009685D01*
X109108294Y-49062489D01*
X109112827Y-49083327D01*
X109119500Y-49090000D01*
X111389500Y-49090000D01*
X111389500Y-49042172D01*
X111389499Y-49042155D01*
X111383098Y-48982627D01*
X111383096Y-48982620D01*
X111332854Y-48847913D01*
X111332850Y-48847906D01*
X111246690Y-48732813D01*
X111233939Y-48723267D01*
X111192068Y-48667333D01*
X111187084Y-48597641D01*
X111220569Y-48536318D01*
X111281893Y-48502834D01*
X111308250Y-48500000D01*
X119876000Y-48500000D01*
X119943039Y-48519685D01*
X119988794Y-48572489D01*
X120000000Y-48624000D01*
X120000000Y-69876000D01*
X119980315Y-69943039D01*
X119927511Y-69988794D01*
X119876000Y-70000000D01*
X92124000Y-70000000D01*
X92056961Y-69980315D01*
X92011206Y-69927511D01*
X92000000Y-69876000D01*
X92000000Y-68286654D01*
X101600001Y-68286654D01*
X101610319Y-68387652D01*
X101664546Y-68551300D01*
X101664551Y-68551311D01*
X101755052Y-68698034D01*
X101755055Y-68698038D01*
X101876961Y-68819944D01*
X101876965Y-68819947D01*
X102023688Y-68910448D01*
X102023699Y-68910453D01*
X102187347Y-68964680D01*
X102288351Y-68974999D01*
X102375000Y-68974998D01*
X102375000Y-68250000D01*
X101600001Y-68250000D01*
X101600001Y-68286654D01*
X92000000Y-68286654D01*
X92000000Y-67713345D01*
X101600000Y-67713345D01*
X101600000Y-67750000D01*
X102375000Y-67750000D01*
X102375000Y-67025000D01*
X102374999Y-67024999D01*
X102288360Y-67025000D01*
X102288343Y-67025001D01*
X102187347Y-67035319D01*
X102023699Y-67089546D01*
X102023688Y-67089551D01*
X101876965Y-67180052D01*
X101876961Y-67180055D01*
X101755055Y-67301961D01*
X101755052Y-67301965D01*
X101664551Y-67448688D01*
X101664546Y-67448699D01*
X101610319Y-67612347D01*
X101600000Y-67713345D01*
X92000000Y-67713345D01*
X92000000Y-50799999D01*
X92624341Y-50799999D01*
X92624341Y-50800000D01*
X92644936Y-51035403D01*
X92644938Y-51035413D01*
X92706094Y-51263655D01*
X92706096Y-51263659D01*
X92706097Y-51263663D01*
X92805847Y-51477578D01*
X92805965Y-51477830D01*
X92805967Y-51477834D01*
X92941501Y-51671395D01*
X92941506Y-51671402D01*
X93108597Y-51838493D01*
X93108603Y-51838498D01*
X93294158Y-51968425D01*
X93337783Y-52023002D01*
X93344977Y-52092500D01*
X93313454Y-52154855D01*
X93294158Y-52171575D01*
X93108597Y-52301505D01*
X92941505Y-52468597D01*
X92805965Y-52662169D01*
X92805964Y-52662171D01*
X92706098Y-52876335D01*
X92706094Y-52876344D01*
X92644938Y-53104586D01*
X92644936Y-53104596D01*
X92624341Y-53339999D01*
X92624341Y-53340000D01*
X92644936Y-53575403D01*
X92644938Y-53575413D01*
X92706094Y-53803655D01*
X92706096Y-53803659D01*
X92706097Y-53803663D01*
X92805965Y-54017830D01*
X92805967Y-54017834D01*
X92941501Y-54211395D01*
X92941506Y-54211402D01*
X93108597Y-54378493D01*
X93108603Y-54378498D01*
X93294158Y-54508425D01*
X93337783Y-54563002D01*
X93344977Y-54632500D01*
X93313454Y-54694855D01*
X93294158Y-54711575D01*
X93108597Y-54841505D01*
X92941505Y-55008597D01*
X92805965Y-55202169D01*
X92805964Y-55202171D01*
X92706098Y-55416335D01*
X92706094Y-55416344D01*
X92644938Y-55644586D01*
X92644936Y-55644596D01*
X92624341Y-55879999D01*
X92624341Y-55880000D01*
X92644936Y-56115403D01*
X92644938Y-56115413D01*
X92706094Y-56343655D01*
X92706096Y-56343659D01*
X92706097Y-56343663D01*
X92768655Y-56477819D01*
X92805965Y-56557830D01*
X92805967Y-56557834D01*
X92941501Y-56751395D01*
X92941506Y-56751402D01*
X93108597Y-56918493D01*
X93108603Y-56918498D01*
X93294158Y-57048425D01*
X93337783Y-57103002D01*
X93344977Y-57172500D01*
X93313454Y-57234855D01*
X93294158Y-57251575D01*
X93108597Y-57381505D01*
X92941505Y-57548597D01*
X92805965Y-57742169D01*
X92805964Y-57742171D01*
X92706098Y-57956335D01*
X92706094Y-57956344D01*
X92644938Y-58184586D01*
X92644936Y-58184596D01*
X92624341Y-58419999D01*
X92624341Y-58420000D01*
X92644936Y-58655403D01*
X92644938Y-58655413D01*
X92706094Y-58883655D01*
X92706096Y-58883659D01*
X92706097Y-58883663D01*
X92728173Y-58931004D01*
X92805965Y-59097830D01*
X92805967Y-59097834D01*
X92941501Y-59291395D01*
X92941506Y-59291402D01*
X93108597Y-59458493D01*
X93108603Y-59458498D01*
X93294594Y-59588730D01*
X93338219Y-59643307D01*
X93345413Y-59712805D01*
X93313890Y-59775160D01*
X93294595Y-59791880D01*
X93108922Y-59921890D01*
X93108920Y-59921891D01*
X92941891Y-60088920D01*
X92941886Y-60088926D01*
X92806400Y-60282420D01*
X92806399Y-60282422D01*
X92706570Y-60496507D01*
X92706567Y-60496513D01*
X92649364Y-60709999D01*
X92649364Y-60710000D01*
X93546988Y-60710000D01*
X93514075Y-60767007D01*
X93480000Y-60894174D01*
X93480000Y-61025826D01*
X93514075Y-61152993D01*
X93546988Y-61210000D01*
X92649364Y-61210000D01*
X92706567Y-61423486D01*
X92706570Y-61423492D01*
X92806399Y-61637578D01*
X92941894Y-61831082D01*
X93063946Y-61953134D01*
X93097431Y-62014457D01*
X93092447Y-62084149D01*
X93050575Y-62140082D01*
X93019598Y-62156997D01*
X92887671Y-62206202D01*
X92887664Y-62206206D01*
X92772455Y-62292452D01*
X92772452Y-62292455D01*
X92686206Y-62407664D01*
X92686202Y-62407671D01*
X92635908Y-62542517D01*
X92632013Y-62578752D01*
X92629501Y-62602123D01*
X92629500Y-62602135D01*
X92629500Y-64397870D01*
X92629501Y-64397876D01*
X92635908Y-64457483D01*
X92686202Y-64592328D01*
X92686206Y-64592335D01*
X92772452Y-64707544D01*
X92772455Y-64707547D01*
X92887664Y-64793793D01*
X92887671Y-64793797D01*
X93022517Y-64844091D01*
X93022516Y-64844091D01*
X93029444Y-64844835D01*
X93082127Y-64850500D01*
X94877872Y-64850499D01*
X94937483Y-64844091D01*
X95072331Y-64793796D01*
X95187546Y-64707546D01*
X95273796Y-64592331D01*
X95324091Y-64457483D01*
X95330500Y-64397873D01*
X95330500Y-64214500D01*
X95350185Y-64147461D01*
X95402989Y-64101706D01*
X95454500Y-64090500D01*
X101308655Y-64090500D01*
X101375694Y-64110185D01*
X101421449Y-64162989D01*
X101424837Y-64171167D01*
X101460702Y-64267328D01*
X101460706Y-64267335D01*
X101546952Y-64382544D01*
X101546955Y-64382547D01*
X101662164Y-64468793D01*
X101662171Y-64468797D01*
X101663469Y-64469281D01*
X101797017Y-64519091D01*
X101856627Y-64525500D01*
X102452372Y-64525499D01*
X102511983Y-64519091D01*
X102611882Y-64481830D01*
X102681572Y-64476847D01*
X102698547Y-64481831D01*
X102797120Y-64518596D01*
X102797127Y-64518598D01*
X102856655Y-64524999D01*
X102856672Y-64525000D01*
X102904500Y-64525000D01*
X102904500Y-64084167D01*
X102904927Y-64076188D01*
X102904822Y-64076183D01*
X102904997Y-64072898D01*
X102905000Y-64072873D01*
X102904999Y-62707128D01*
X102904998Y-62707127D01*
X102904821Y-62703805D01*
X102904926Y-62703799D01*
X102904500Y-62695836D01*
X102904500Y-62255000D01*
X102856655Y-62255000D01*
X102797127Y-62261401D01*
X102797117Y-62261403D01*
X102698546Y-62298168D01*
X102628855Y-62303152D01*
X102611881Y-62298168D01*
X102511986Y-62260910D01*
X102511985Y-62260909D01*
X102511983Y-62260909D01*
X102452373Y-62254500D01*
X102452363Y-62254500D01*
X101856629Y-62254500D01*
X101856623Y-62254501D01*
X101797016Y-62260908D01*
X101662171Y-62311202D01*
X101662164Y-62311206D01*
X101546955Y-62397452D01*
X101546952Y-62397455D01*
X101460706Y-62512664D01*
X101460702Y-62512671D01*
X101424837Y-62608833D01*
X101382966Y-62664767D01*
X101317502Y-62689184D01*
X101308655Y-62689500D01*
X95451276Y-62689500D01*
X95384237Y-62669815D01*
X95338482Y-62617011D01*
X95327986Y-62578752D01*
X95324091Y-62542516D01*
X95273797Y-62407671D01*
X95273793Y-62407664D01*
X95187547Y-62292455D01*
X95187544Y-62292452D01*
X95072335Y-62206206D01*
X95072328Y-62206202D01*
X94940401Y-62156997D01*
X94884467Y-62115126D01*
X94860050Y-62049662D01*
X94874902Y-61981389D01*
X94896053Y-61953133D01*
X95018108Y-61831078D01*
X95153600Y-61637578D01*
X95253429Y-61423492D01*
X95253432Y-61423486D01*
X95310636Y-61210000D01*
X94413012Y-61210000D01*
X94445925Y-61152993D01*
X94480000Y-61025826D01*
X94480000Y-60894174D01*
X94445925Y-60767007D01*
X94413012Y-60710000D01*
X95310636Y-60710000D01*
X95310635Y-60709999D01*
X95253432Y-60496513D01*
X95253429Y-60496507D01*
X95153600Y-60282422D01*
X95153599Y-60282420D01*
X95018113Y-60088926D01*
X95018108Y-60088920D01*
X94851078Y-59921890D01*
X94665405Y-59791879D01*
X94621780Y-59737302D01*
X94614588Y-59667804D01*
X94646110Y-59605449D01*
X94665406Y-59588730D01*
X94682845Y-59576519D01*
X94851401Y-59458495D01*
X95018495Y-59291401D01*
X95101136Y-59173376D01*
X95155713Y-59129752D01*
X95202711Y-59120500D01*
X100729953Y-59120500D01*
X100796992Y-59140185D01*
X100817634Y-59156819D01*
X103417681Y-61756866D01*
X103451166Y-61818189D01*
X103454000Y-61844547D01*
X103454000Y-62154138D01*
X103434315Y-62221177D01*
X103417681Y-62241819D01*
X103404500Y-62255000D01*
X103404500Y-62695826D01*
X103404072Y-62703798D01*
X103404178Y-62703804D01*
X103404000Y-62707128D01*
X103404000Y-64072863D01*
X103404179Y-64076180D01*
X103404072Y-64076185D01*
X103404500Y-64084156D01*
X103404500Y-64525000D01*
X103452328Y-64525000D01*
X103452344Y-64524999D01*
X103511872Y-64518598D01*
X103511876Y-64518597D01*
X103610451Y-64481831D01*
X103680143Y-64476847D01*
X103697116Y-64481830D01*
X103797017Y-64519091D01*
X103856627Y-64525500D01*
X104452372Y-64525499D01*
X104511983Y-64519091D01*
X104611169Y-64482096D01*
X104680858Y-64477113D01*
X104697819Y-64482092D01*
X104787871Y-64515679D01*
X104797011Y-64519089D01*
X104797017Y-64519091D01*
X104856627Y-64525500D01*
X105452372Y-64525499D01*
X105511983Y-64519091D01*
X105611169Y-64482096D01*
X105680858Y-64477113D01*
X105697819Y-64482092D01*
X105787871Y-64515679D01*
X105797011Y-64519089D01*
X105797017Y-64519091D01*
X105856627Y-64525500D01*
X106452372Y-64525499D01*
X106511983Y-64519091D01*
X106611169Y-64482096D01*
X106680858Y-64477113D01*
X106697819Y-64482092D01*
X106787871Y-64515679D01*
X106797011Y-64519089D01*
X106797017Y-64519091D01*
X106856627Y-64525500D01*
X107452372Y-64525499D01*
X107511983Y-64519091D01*
X107632168Y-64474264D01*
X107701858Y-64469281D01*
X107763181Y-64502766D01*
X107796666Y-64564089D01*
X107799500Y-64590447D01*
X107799500Y-65931006D01*
X107799500Y-66068994D01*
X107799500Y-66068996D01*
X107799499Y-66068996D01*
X107826418Y-66204322D01*
X107826421Y-66204332D01*
X107879222Y-66331807D01*
X107955887Y-66446545D01*
X107955888Y-66446546D01*
X108426818Y-66917475D01*
X108460303Y-66978798D01*
X108455319Y-67048489D01*
X108413448Y-67104423D01*
X108347983Y-67128840D01*
X108279710Y-67113988D01*
X108274041Y-67110695D01*
X108239022Y-67089096D01*
X108239016Y-67089092D01*
X108075253Y-67034826D01*
X108075251Y-67034825D01*
X107974178Y-67024500D01*
X107375830Y-67024500D01*
X107375812Y-67024501D01*
X107274747Y-67034825D01*
X107110984Y-67089092D01*
X107110981Y-67089093D01*
X106964148Y-67179661D01*
X106880629Y-67263181D01*
X106819306Y-67296666D01*
X106792948Y-67299500D01*
X105294552Y-67299500D01*
X105227513Y-67279815D01*
X105206871Y-67263181D01*
X105123351Y-67179661D01*
X105123350Y-67179660D01*
X105011540Y-67110695D01*
X104976518Y-67089093D01*
X104976513Y-67089091D01*
X104975069Y-67088612D01*
X104812753Y-67034826D01*
X104812751Y-67034825D01*
X104711678Y-67024500D01*
X104038330Y-67024500D01*
X104038312Y-67024501D01*
X103937247Y-67034825D01*
X103773484Y-67089092D01*
X103773481Y-67089093D01*
X103626648Y-67179661D01*
X103587326Y-67218983D01*
X103526003Y-67252468D01*
X103456311Y-67247482D01*
X103411965Y-67218982D01*
X103373038Y-67180055D01*
X103373034Y-67180052D01*
X103226311Y-67089551D01*
X103226300Y-67089546D01*
X103062652Y-67035319D01*
X102961654Y-67025000D01*
X102875000Y-67025000D01*
X102875000Y-68974999D01*
X102961640Y-68974999D01*
X102961654Y-68974998D01*
X103062652Y-68964680D01*
X103226300Y-68910453D01*
X103226311Y-68910448D01*
X103373034Y-68819947D01*
X103373037Y-68819945D01*
X103411964Y-68781018D01*
X103473287Y-68747532D01*
X103542978Y-68752516D01*
X103587327Y-68781017D01*
X103626650Y-68820340D01*
X103773484Y-68910908D01*
X103937247Y-68965174D01*
X104038323Y-68975500D01*
X104711676Y-68975499D01*
X104711684Y-68975498D01*
X104711687Y-68975498D01*
X104767030Y-68969844D01*
X104812753Y-68965174D01*
X104976516Y-68910908D01*
X105123350Y-68820340D01*
X105206871Y-68736819D01*
X105268194Y-68703334D01*
X105294552Y-68700500D01*
X106792948Y-68700500D01*
X106859987Y-68720185D01*
X106880629Y-68736819D01*
X106964150Y-68820340D01*
X107110984Y-68910908D01*
X107274747Y-68965174D01*
X107375823Y-68975500D01*
X107974176Y-68975499D01*
X107974184Y-68975498D01*
X107974187Y-68975498D01*
X108029530Y-68969844D01*
X108075253Y-68965174D01*
X108239016Y-68910908D01*
X108385850Y-68820340D01*
X108499819Y-68706371D01*
X108561142Y-68672886D01*
X108630834Y-68677870D01*
X108675181Y-68706371D01*
X108789150Y-68820340D01*
X108935984Y-68910908D01*
X109099747Y-68965174D01*
X109200823Y-68975500D01*
X109799176Y-68975499D01*
X109799184Y-68975498D01*
X109799187Y-68975498D01*
X109854530Y-68969844D01*
X109900253Y-68965174D01*
X110064016Y-68910908D01*
X110210850Y-68820340D01*
X110332840Y-68698350D01*
X110423408Y-68551516D01*
X110477674Y-68387753D01*
X110488000Y-68286677D01*
X110487999Y-67713324D01*
X110477674Y-67612247D01*
X110423408Y-67448484D01*
X110332840Y-67301650D01*
X110236819Y-67205629D01*
X110203334Y-67144306D01*
X110200500Y-67117948D01*
X110200500Y-66931004D01*
X110173581Y-66795677D01*
X110173580Y-66795676D01*
X110173580Y-66795672D01*
X110173578Y-66795667D01*
X110120778Y-66668195D01*
X110120774Y-66668188D01*
X110089094Y-66620775D01*
X110044114Y-66553457D01*
X110044112Y-66553454D01*
X109236819Y-65746161D01*
X109203334Y-65684838D01*
X109200500Y-65658480D01*
X109200500Y-61196318D01*
X109220185Y-61129279D01*
X109272989Y-61083524D01*
X109342147Y-61073580D01*
X109368267Y-61082282D01*
X109368859Y-61080697D01*
X109512017Y-61134091D01*
X109512016Y-61134091D01*
X109518944Y-61134835D01*
X109571627Y-61140500D01*
X110937372Y-61140499D01*
X110996983Y-61134091D01*
X111092896Y-61098318D01*
X111136229Y-61090500D01*
X114658481Y-61090500D01*
X114725520Y-61110185D01*
X114746162Y-61126819D01*
X116723181Y-63103838D01*
X116756666Y-63165161D01*
X116759500Y-63191519D01*
X116759500Y-64397870D01*
X116759501Y-64397876D01*
X116765908Y-64457483D01*
X116816202Y-64592328D01*
X116816206Y-64592335D01*
X116902452Y-64707544D01*
X116902455Y-64707547D01*
X117017664Y-64793793D01*
X117017671Y-64793797D01*
X117152517Y-64844091D01*
X117152516Y-64844091D01*
X117159444Y-64844835D01*
X117212127Y-64850500D01*
X119007872Y-64850499D01*
X119067483Y-64844091D01*
X119202331Y-64793796D01*
X119317546Y-64707546D01*
X119403796Y-64592331D01*
X119454091Y-64457483D01*
X119460500Y-64397873D01*
X119460499Y-62602128D01*
X119454091Y-62542517D01*
X119449662Y-62530643D01*
X119403797Y-62407671D01*
X119403793Y-62407664D01*
X119317547Y-62292455D01*
X119317544Y-62292452D01*
X119202335Y-62206206D01*
X119202328Y-62206202D01*
X119070917Y-62157189D01*
X119014983Y-62115318D01*
X118990566Y-62049853D01*
X119005418Y-61981580D01*
X119026563Y-61953332D01*
X119148495Y-61831401D01*
X119284035Y-61637830D01*
X119383903Y-61423663D01*
X119445063Y-61195408D01*
X119465659Y-60960000D01*
X119445063Y-60724592D01*
X119383903Y-60496337D01*
X119284035Y-60282171D01*
X119255108Y-60240858D01*
X119148494Y-60088597D01*
X118981402Y-59921506D01*
X118981396Y-59921501D01*
X118795842Y-59791575D01*
X118752217Y-59736998D01*
X118745023Y-59667500D01*
X118776546Y-59605145D01*
X118795842Y-59588425D01*
X118908587Y-59509480D01*
X118981401Y-59458495D01*
X119148495Y-59291401D01*
X119284035Y-59097830D01*
X119383903Y-58883663D01*
X119445063Y-58655408D01*
X119465659Y-58420000D01*
X119445063Y-58184592D01*
X119383903Y-57956337D01*
X119284035Y-57742171D01*
X119267940Y-57719184D01*
X119148494Y-57548597D01*
X118981402Y-57381506D01*
X118981396Y-57381501D01*
X118795842Y-57251575D01*
X118752217Y-57196998D01*
X118745023Y-57127500D01*
X118776546Y-57065145D01*
X118795842Y-57048425D01*
X118818569Y-57032511D01*
X118981401Y-56918495D01*
X119148495Y-56751401D01*
X119284035Y-56557830D01*
X119383903Y-56343663D01*
X119445063Y-56115408D01*
X119465659Y-55880000D01*
X119445063Y-55644592D01*
X119383903Y-55416337D01*
X119284035Y-55202171D01*
X119267940Y-55179184D01*
X119148494Y-55008597D01*
X118981402Y-54841506D01*
X118981396Y-54841501D01*
X118795842Y-54711575D01*
X118752217Y-54656998D01*
X118745023Y-54587500D01*
X118776546Y-54525145D01*
X118795842Y-54508425D01*
X118818026Y-54492891D01*
X118981401Y-54378495D01*
X119148495Y-54211401D01*
X119284035Y-54017830D01*
X119383903Y-53803663D01*
X119445063Y-53575408D01*
X119465659Y-53340000D01*
X119445063Y-53104592D01*
X119383903Y-52876337D01*
X119284035Y-52662171D01*
X119267940Y-52639184D01*
X119148494Y-52468597D01*
X118981402Y-52301506D01*
X118981401Y-52301505D01*
X118795405Y-52171269D01*
X118751781Y-52116692D01*
X118744588Y-52047193D01*
X118776110Y-51984839D01*
X118795405Y-51968119D01*
X118981082Y-51838105D01*
X119148105Y-51671082D01*
X119283600Y-51477578D01*
X119383429Y-51263492D01*
X119383432Y-51263486D01*
X119440636Y-51050000D01*
X118543012Y-51050000D01*
X118575925Y-50992993D01*
X118610000Y-50865826D01*
X118610000Y-50734174D01*
X118575925Y-50607007D01*
X118543012Y-50550000D01*
X119440636Y-50550000D01*
X119440635Y-50549999D01*
X119383432Y-50336513D01*
X119383429Y-50336507D01*
X119283600Y-50122422D01*
X119283599Y-50122420D01*
X119148113Y-49928926D01*
X119148108Y-49928920D01*
X118981082Y-49761894D01*
X118787578Y-49626399D01*
X118573492Y-49526570D01*
X118573486Y-49526567D01*
X118360000Y-49469364D01*
X118360000Y-50366988D01*
X118302993Y-50334075D01*
X118175826Y-50300000D01*
X118044174Y-50300000D01*
X117917007Y-50334075D01*
X117860000Y-50366988D01*
X117860000Y-49469364D01*
X117859999Y-49469364D01*
X117646513Y-49526567D01*
X117646507Y-49526570D01*
X117432422Y-49626399D01*
X117432420Y-49626400D01*
X117238926Y-49761886D01*
X117238920Y-49761891D01*
X117071891Y-49928920D01*
X117071886Y-49928926D01*
X116936400Y-50122420D01*
X116936399Y-50122422D01*
X116836570Y-50336507D01*
X116836567Y-50336513D01*
X116779364Y-50549999D01*
X116779364Y-50550000D01*
X117676988Y-50550000D01*
X117644075Y-50607007D01*
X117610000Y-50734174D01*
X117610000Y-50865826D01*
X117644075Y-50992993D01*
X117676988Y-51050000D01*
X116779364Y-51050000D01*
X116836567Y-51263486D01*
X116836570Y-51263492D01*
X116936399Y-51477578D01*
X117071894Y-51671082D01*
X117238917Y-51838105D01*
X117424595Y-51968119D01*
X117468219Y-52022696D01*
X117475412Y-52092195D01*
X117443890Y-52154549D01*
X117424595Y-52171269D01*
X117238594Y-52301508D01*
X117071505Y-52468597D01*
X116935965Y-52662169D01*
X116935964Y-52662171D01*
X116836098Y-52876335D01*
X116836094Y-52876344D01*
X116774938Y-53104586D01*
X116774936Y-53104596D01*
X116754341Y-53339999D01*
X116754341Y-53340000D01*
X116774937Y-53575409D01*
X116774937Y-53575410D01*
X116779442Y-53592225D01*
X116777776Y-53662075D01*
X116747347Y-53711994D01*
X114806162Y-55653181D01*
X114744839Y-55686666D01*
X114718481Y-55689500D01*
X111136229Y-55689500D01*
X111092896Y-55681682D01*
X110996982Y-55645908D01*
X110996983Y-55645908D01*
X110937383Y-55639501D01*
X110937381Y-55639500D01*
X110937373Y-55639500D01*
X110937364Y-55639500D01*
X109571629Y-55639500D01*
X109571623Y-55639501D01*
X109512016Y-55645908D01*
X109377171Y-55696202D01*
X109377164Y-55696206D01*
X109261955Y-55782452D01*
X109261952Y-55782455D01*
X109175706Y-55897664D01*
X109175702Y-55897671D01*
X109125410Y-56032513D01*
X109125409Y-56032517D01*
X109119000Y-56092127D01*
X109119000Y-56092134D01*
X109119000Y-56092135D01*
X109119000Y-56687870D01*
X109119001Y-56687876D01*
X109125409Y-56747484D01*
X109162401Y-56846668D01*
X109167385Y-56916360D01*
X109162401Y-56933332D01*
X109125410Y-57032511D01*
X109125409Y-57032515D01*
X109125409Y-57032517D01*
X109119000Y-57092127D01*
X109119000Y-57092134D01*
X109119000Y-57092135D01*
X109119000Y-57572221D01*
X109099315Y-57639260D01*
X109046511Y-57685015D01*
X109019193Y-57693838D01*
X108946754Y-57708247D01*
X108932591Y-57711065D01*
X108905671Y-57716420D01*
X108778190Y-57769224D01*
X108663454Y-57845887D01*
X107955887Y-58553454D01*
X107908532Y-58624328D01*
X107893878Y-58646258D01*
X107879225Y-58668188D01*
X107879221Y-58668195D01*
X107826421Y-58795667D01*
X107826418Y-58795677D01*
X107799500Y-58931004D01*
X107799500Y-59509480D01*
X107779815Y-59576519D01*
X107727011Y-59622274D01*
X107657853Y-59632218D01*
X107594297Y-59603193D01*
X107587819Y-59597161D01*
X98246545Y-50255887D01*
X98131807Y-50179222D01*
X98004332Y-50126421D01*
X98004322Y-50126418D01*
X97868996Y-50099500D01*
X97868994Y-50099500D01*
X97868993Y-50099500D01*
X95202711Y-50099500D01*
X95135672Y-50079815D01*
X95101136Y-50046623D01*
X95018494Y-49928597D01*
X94851402Y-49761506D01*
X94851395Y-49761501D01*
X94657834Y-49625967D01*
X94657830Y-49625965D01*
X94580703Y-49590000D01*
X94443663Y-49526097D01*
X94443659Y-49526096D01*
X94443655Y-49526094D01*
X94215413Y-49464938D01*
X94215403Y-49464936D01*
X93980001Y-49444341D01*
X93979999Y-49444341D01*
X93744596Y-49464936D01*
X93744586Y-49464938D01*
X93516344Y-49526094D01*
X93516335Y-49526098D01*
X93302171Y-49625964D01*
X93302169Y-49625965D01*
X93108597Y-49761505D01*
X92941505Y-49928597D01*
X92805965Y-50122169D01*
X92805964Y-50122171D01*
X92706098Y-50336335D01*
X92706094Y-50336344D01*
X92644938Y-50564586D01*
X92644936Y-50564596D01*
X92624341Y-50799999D01*
X92000000Y-50799999D01*
X92000000Y-48624000D01*
X92019685Y-48556961D01*
X92072489Y-48511206D01*
X92124000Y-48500000D01*
X100986500Y-48500000D01*
X101053539Y-48519685D01*
G37*
%TD.AperFunction*%
%TD*%
M02*
