%TF.GenerationSoftware,KiCad,Pcbnew,8.0.2-8.0.2-0~ubuntu22.04.1*%
%TF.CreationDate,2024-05-29T19:46:19+02:00*%
%TF.ProjectId,nrf51_devboard,6e726635-315f-4646-9576-626f6172642e,0.1*%
%TF.SameCoordinates,Original*%
%TF.FileFunction,Legend,Bot*%
%TF.FilePolarity,Positive*%
%FSLAX46Y46*%
G04 Gerber Fmt 4.6, Leading zero omitted, Abs format (unit mm)*
G04 Created by KiCad (PCBNEW 8.0.2-8.0.2-0~ubuntu22.04.1) date 2024-05-29 19:46:19*
%MOMM*%
%LPD*%
G01*
G04 APERTURE LIST*
%ADD10C,0.300000*%
%ADD11C,0.010000*%
%ADD12R,1.700000X1.700000*%
%ADD13O,1.700000X1.700000*%
G04 APERTURE END LIST*
D10*
X114357141Y-62885912D02*
X113999998Y-64385912D01*
X113999998Y-64385912D02*
X113714284Y-63314484D01*
X113714284Y-63314484D02*
X113428569Y-64385912D01*
X113428569Y-64385912D02*
X113071427Y-62885912D01*
X112714283Y-62885912D02*
X111857141Y-62885912D01*
X112285712Y-64385912D02*
X112285712Y-62885912D01*
X110642855Y-62885912D02*
X111357141Y-62885912D01*
X111357141Y-62885912D02*
X111428569Y-63600198D01*
X111428569Y-63600198D02*
X111357141Y-63528769D01*
X111357141Y-63528769D02*
X111214284Y-63457341D01*
X111214284Y-63457341D02*
X110857141Y-63457341D01*
X110857141Y-63457341D02*
X110714284Y-63528769D01*
X110714284Y-63528769D02*
X110642855Y-63600198D01*
X110642855Y-63600198D02*
X110571426Y-63743055D01*
X110571426Y-63743055D02*
X110571426Y-64100198D01*
X110571426Y-64100198D02*
X110642855Y-64243055D01*
X110642855Y-64243055D02*
X110714284Y-64314484D01*
X110714284Y-64314484D02*
X110857141Y-64385912D01*
X110857141Y-64385912D02*
X111214284Y-64385912D01*
X111214284Y-64385912D02*
X111357141Y-64314484D01*
X111357141Y-64314484D02*
X111428569Y-64243055D01*
X109142855Y-64385912D02*
X109999998Y-64385912D01*
X109571427Y-64385912D02*
X109571427Y-62885912D01*
X109571427Y-62885912D02*
X109714284Y-63100198D01*
X109714284Y-63100198D02*
X109857141Y-63243055D01*
X109857141Y-63243055D02*
X109999998Y-63314484D01*
X108285713Y-63528769D02*
X108428570Y-63457341D01*
X108428570Y-63457341D02*
X108499999Y-63385912D01*
X108499999Y-63385912D02*
X108571427Y-63243055D01*
X108571427Y-63243055D02*
X108571427Y-63171626D01*
X108571427Y-63171626D02*
X108499999Y-63028769D01*
X108499999Y-63028769D02*
X108428570Y-62957341D01*
X108428570Y-62957341D02*
X108285713Y-62885912D01*
X108285713Y-62885912D02*
X107999999Y-62885912D01*
X107999999Y-62885912D02*
X107857142Y-62957341D01*
X107857142Y-62957341D02*
X107785713Y-63028769D01*
X107785713Y-63028769D02*
X107714284Y-63171626D01*
X107714284Y-63171626D02*
X107714284Y-63243055D01*
X107714284Y-63243055D02*
X107785713Y-63385912D01*
X107785713Y-63385912D02*
X107857142Y-63457341D01*
X107857142Y-63457341D02*
X107999999Y-63528769D01*
X107999999Y-63528769D02*
X108285713Y-63528769D01*
X108285713Y-63528769D02*
X108428570Y-63600198D01*
X108428570Y-63600198D02*
X108499999Y-63671626D01*
X108499999Y-63671626D02*
X108571427Y-63814484D01*
X108571427Y-63814484D02*
X108571427Y-64100198D01*
X108571427Y-64100198D02*
X108499999Y-64243055D01*
X108499999Y-64243055D02*
X108428570Y-64314484D01*
X108428570Y-64314484D02*
X108285713Y-64385912D01*
X108285713Y-64385912D02*
X107999999Y-64385912D01*
X107999999Y-64385912D02*
X107857142Y-64314484D01*
X107857142Y-64314484D02*
X107785713Y-64243055D01*
X107785713Y-64243055D02*
X107714284Y-64100198D01*
X107714284Y-64100198D02*
X107714284Y-63814484D01*
X107714284Y-63814484D02*
X107785713Y-63671626D01*
X107785713Y-63671626D02*
X107857142Y-63600198D01*
X107857142Y-63600198D02*
X107999999Y-63528769D01*
X107142856Y-63028769D02*
X107071428Y-62957341D01*
X107071428Y-62957341D02*
X106928571Y-62885912D01*
X106928571Y-62885912D02*
X106571428Y-62885912D01*
X106571428Y-62885912D02*
X106428571Y-62957341D01*
X106428571Y-62957341D02*
X106357142Y-63028769D01*
X106357142Y-63028769D02*
X106285713Y-63171626D01*
X106285713Y-63171626D02*
X106285713Y-63314484D01*
X106285713Y-63314484D02*
X106357142Y-63528769D01*
X106357142Y-63528769D02*
X107214285Y-64385912D01*
X107214285Y-64385912D02*
X106285713Y-64385912D01*
X105714285Y-63028769D02*
X105642857Y-62957341D01*
X105642857Y-62957341D02*
X105500000Y-62885912D01*
X105500000Y-62885912D02*
X105142857Y-62885912D01*
X105142857Y-62885912D02*
X105000000Y-62957341D01*
X105000000Y-62957341D02*
X104928571Y-63028769D01*
X104928571Y-63028769D02*
X104857142Y-63171626D01*
X104857142Y-63171626D02*
X104857142Y-63314484D01*
X104857142Y-63314484D02*
X104928571Y-63528769D01*
X104928571Y-63528769D02*
X105785714Y-64385912D01*
X105785714Y-64385912D02*
X104857142Y-64385912D01*
X104214286Y-63814484D02*
X103071429Y-63814484D01*
X102428571Y-64314484D02*
X102214286Y-64385912D01*
X102214286Y-64385912D02*
X101857143Y-64385912D01*
X101857143Y-64385912D02*
X101714286Y-64314484D01*
X101714286Y-64314484D02*
X101642857Y-64243055D01*
X101642857Y-64243055D02*
X101571428Y-64100198D01*
X101571428Y-64100198D02*
X101571428Y-63957341D01*
X101571428Y-63957341D02*
X101642857Y-63814484D01*
X101642857Y-63814484D02*
X101714286Y-63743055D01*
X101714286Y-63743055D02*
X101857143Y-63671626D01*
X101857143Y-63671626D02*
X102142857Y-63600198D01*
X102142857Y-63600198D02*
X102285714Y-63528769D01*
X102285714Y-63528769D02*
X102357143Y-63457341D01*
X102357143Y-63457341D02*
X102428571Y-63314484D01*
X102428571Y-63314484D02*
X102428571Y-63171626D01*
X102428571Y-63171626D02*
X102357143Y-63028769D01*
X102357143Y-63028769D02*
X102285714Y-62957341D01*
X102285714Y-62957341D02*
X102142857Y-62885912D01*
X102142857Y-62885912D02*
X101785714Y-62885912D01*
X101785714Y-62885912D02*
X101571428Y-62957341D01*
X100285715Y-63385912D02*
X100285715Y-64385912D01*
X100642857Y-62814484D02*
X101000000Y-63885912D01*
X101000000Y-63885912D02*
X100071429Y-63885912D01*
X99571429Y-63957341D02*
X98857144Y-63957341D01*
X99714286Y-64385912D02*
X99214286Y-62885912D01*
X99214286Y-62885912D02*
X98714286Y-64385912D01*
X98428572Y-62885912D02*
X97571430Y-62885912D01*
X98000001Y-64385912D02*
X98000001Y-62885912D01*
X114464285Y-66800828D02*
X114464285Y-65300828D01*
X114464285Y-66729400D02*
X114607142Y-66800828D01*
X114607142Y-66800828D02*
X114892856Y-66800828D01*
X114892856Y-66800828D02*
X115035713Y-66729400D01*
X115035713Y-66729400D02*
X115107142Y-66657971D01*
X115107142Y-66657971D02*
X115178570Y-66515114D01*
X115178570Y-66515114D02*
X115178570Y-66086542D01*
X115178570Y-66086542D02*
X115107142Y-65943685D01*
X115107142Y-65943685D02*
X115035713Y-65872257D01*
X115035713Y-65872257D02*
X114892856Y-65800828D01*
X114892856Y-65800828D02*
X114607142Y-65800828D01*
X114607142Y-65800828D02*
X114464285Y-65872257D01*
X113178570Y-66729400D02*
X113321427Y-66800828D01*
X113321427Y-66800828D02*
X113607142Y-66800828D01*
X113607142Y-66800828D02*
X113749999Y-66729400D01*
X113749999Y-66729400D02*
X113821427Y-66586542D01*
X113821427Y-66586542D02*
X113821427Y-66015114D01*
X113821427Y-66015114D02*
X113749999Y-65872257D01*
X113749999Y-65872257D02*
X113607142Y-65800828D01*
X113607142Y-65800828D02*
X113321427Y-65800828D01*
X113321427Y-65800828D02*
X113178570Y-65872257D01*
X113178570Y-65872257D02*
X113107142Y-66015114D01*
X113107142Y-66015114D02*
X113107142Y-66157971D01*
X113107142Y-66157971D02*
X113821427Y-66300828D01*
X112607142Y-65800828D02*
X112249999Y-66800828D01*
X112249999Y-66800828D02*
X111892856Y-65800828D01*
X111321428Y-66800828D02*
X111321428Y-65300828D01*
X111321428Y-65872257D02*
X111178571Y-65800828D01*
X111178571Y-65800828D02*
X110892856Y-65800828D01*
X110892856Y-65800828D02*
X110749999Y-65872257D01*
X110749999Y-65872257D02*
X110678571Y-65943685D01*
X110678571Y-65943685D02*
X110607142Y-66086542D01*
X110607142Y-66086542D02*
X110607142Y-66515114D01*
X110607142Y-66515114D02*
X110678571Y-66657971D01*
X110678571Y-66657971D02*
X110749999Y-66729400D01*
X110749999Y-66729400D02*
X110892856Y-66800828D01*
X110892856Y-66800828D02*
X111178571Y-66800828D01*
X111178571Y-66800828D02*
X111321428Y-66729400D01*
X109749999Y-66800828D02*
X109892856Y-66729400D01*
X109892856Y-66729400D02*
X109964285Y-66657971D01*
X109964285Y-66657971D02*
X110035713Y-66515114D01*
X110035713Y-66515114D02*
X110035713Y-66086542D01*
X110035713Y-66086542D02*
X109964285Y-65943685D01*
X109964285Y-65943685D02*
X109892856Y-65872257D01*
X109892856Y-65872257D02*
X109749999Y-65800828D01*
X109749999Y-65800828D02*
X109535713Y-65800828D01*
X109535713Y-65800828D02*
X109392856Y-65872257D01*
X109392856Y-65872257D02*
X109321428Y-65943685D01*
X109321428Y-65943685D02*
X109249999Y-66086542D01*
X109249999Y-66086542D02*
X109249999Y-66515114D01*
X109249999Y-66515114D02*
X109321428Y-66657971D01*
X109321428Y-66657971D02*
X109392856Y-66729400D01*
X109392856Y-66729400D02*
X109535713Y-66800828D01*
X109535713Y-66800828D02*
X109749999Y-66800828D01*
X107964285Y-66800828D02*
X107964285Y-66015114D01*
X107964285Y-66015114D02*
X108035713Y-65872257D01*
X108035713Y-65872257D02*
X108178570Y-65800828D01*
X108178570Y-65800828D02*
X108464285Y-65800828D01*
X108464285Y-65800828D02*
X108607142Y-65872257D01*
X107964285Y-66729400D02*
X108107142Y-66800828D01*
X108107142Y-66800828D02*
X108464285Y-66800828D01*
X108464285Y-66800828D02*
X108607142Y-66729400D01*
X108607142Y-66729400D02*
X108678570Y-66586542D01*
X108678570Y-66586542D02*
X108678570Y-66443685D01*
X108678570Y-66443685D02*
X108607142Y-66300828D01*
X108607142Y-66300828D02*
X108464285Y-66229400D01*
X108464285Y-66229400D02*
X108107142Y-66229400D01*
X108107142Y-66229400D02*
X107964285Y-66157971D01*
X107249999Y-66800828D02*
X107249999Y-65800828D01*
X107249999Y-66086542D02*
X107178570Y-65943685D01*
X107178570Y-65943685D02*
X107107142Y-65872257D01*
X107107142Y-65872257D02*
X106964284Y-65800828D01*
X106964284Y-65800828D02*
X106821427Y-65800828D01*
X105678571Y-66800828D02*
X105678571Y-65300828D01*
X105678571Y-66729400D02*
X105821428Y-66800828D01*
X105821428Y-66800828D02*
X106107142Y-66800828D01*
X106107142Y-66800828D02*
X106249999Y-66729400D01*
X106249999Y-66729400D02*
X106321428Y-66657971D01*
X106321428Y-66657971D02*
X106392856Y-66515114D01*
X106392856Y-66515114D02*
X106392856Y-66086542D01*
X106392856Y-66086542D02*
X106321428Y-65943685D01*
X106321428Y-65943685D02*
X106249999Y-65872257D01*
X106249999Y-65872257D02*
X106107142Y-65800828D01*
X106107142Y-65800828D02*
X105821428Y-65800828D01*
X105821428Y-65800828D02*
X105678571Y-65872257D01*
X103821428Y-66800828D02*
X103821428Y-65800828D01*
X103821428Y-66086542D02*
X103749999Y-65943685D01*
X103749999Y-65943685D02*
X103678571Y-65872257D01*
X103678571Y-65872257D02*
X103535713Y-65800828D01*
X103535713Y-65800828D02*
X103392856Y-65800828D01*
X102321428Y-66729400D02*
X102464285Y-66800828D01*
X102464285Y-66800828D02*
X102750000Y-66800828D01*
X102750000Y-66800828D02*
X102892857Y-66729400D01*
X102892857Y-66729400D02*
X102964285Y-66586542D01*
X102964285Y-66586542D02*
X102964285Y-66015114D01*
X102964285Y-66015114D02*
X102892857Y-65872257D01*
X102892857Y-65872257D02*
X102750000Y-65800828D01*
X102750000Y-65800828D02*
X102464285Y-65800828D01*
X102464285Y-65800828D02*
X102321428Y-65872257D01*
X102321428Y-65872257D02*
X102250000Y-66015114D01*
X102250000Y-66015114D02*
X102250000Y-66157971D01*
X102250000Y-66157971D02*
X102964285Y-66300828D01*
X101750000Y-65800828D02*
X101392857Y-66800828D01*
X101392857Y-66800828D02*
X101035714Y-65800828D01*
X100464286Y-66657971D02*
X100392857Y-66729400D01*
X100392857Y-66729400D02*
X100464286Y-66800828D01*
X100464286Y-66800828D02*
X100535714Y-66729400D01*
X100535714Y-66729400D02*
X100464286Y-66657971D01*
X100464286Y-66657971D02*
X100464286Y-66800828D01*
X99464285Y-65300828D02*
X99321428Y-65300828D01*
X99321428Y-65300828D02*
X99178571Y-65372257D01*
X99178571Y-65372257D02*
X99107143Y-65443685D01*
X99107143Y-65443685D02*
X99035714Y-65586542D01*
X99035714Y-65586542D02*
X98964285Y-65872257D01*
X98964285Y-65872257D02*
X98964285Y-66229400D01*
X98964285Y-66229400D02*
X99035714Y-66515114D01*
X99035714Y-66515114D02*
X99107143Y-66657971D01*
X99107143Y-66657971D02*
X99178571Y-66729400D01*
X99178571Y-66729400D02*
X99321428Y-66800828D01*
X99321428Y-66800828D02*
X99464285Y-66800828D01*
X99464285Y-66800828D02*
X99607143Y-66729400D01*
X99607143Y-66729400D02*
X99678571Y-66657971D01*
X99678571Y-66657971D02*
X99750000Y-66515114D01*
X99750000Y-66515114D02*
X99821428Y-66229400D01*
X99821428Y-66229400D02*
X99821428Y-65872257D01*
X99821428Y-65872257D02*
X99750000Y-65586542D01*
X99750000Y-65586542D02*
X99678571Y-65443685D01*
X99678571Y-65443685D02*
X99607143Y-65372257D01*
X99607143Y-65372257D02*
X99464285Y-65300828D01*
X98321429Y-66657971D02*
X98250000Y-66729400D01*
X98250000Y-66729400D02*
X98321429Y-66800828D01*
X98321429Y-66800828D02*
X98392857Y-66729400D01*
X98392857Y-66729400D02*
X98321429Y-66657971D01*
X98321429Y-66657971D02*
X98321429Y-66800828D01*
X96821428Y-66800828D02*
X97678571Y-66800828D01*
X97250000Y-66800828D02*
X97250000Y-65300828D01*
X97250000Y-65300828D02*
X97392857Y-65515114D01*
X97392857Y-65515114D02*
X97535714Y-65657971D01*
X97535714Y-65657971D02*
X97678571Y-65729400D01*
D11*
%TO.C,G1*%
X105502452Y-57656366D02*
X105591869Y-57656494D01*
X105706880Y-57656772D01*
X105799983Y-57657231D01*
X105873276Y-57657965D01*
X105928860Y-57659064D01*
X105968832Y-57660620D01*
X105995293Y-57662726D01*
X106010341Y-57665473D01*
X106016076Y-57668953D01*
X106014596Y-57673258D01*
X106008000Y-57678480D01*
X105953434Y-57720488D01*
X105869240Y-57805436D01*
X105788282Y-57911123D01*
X105712246Y-58034704D01*
X105642817Y-58173336D01*
X105581679Y-58324174D01*
X105530519Y-58484375D01*
X105529643Y-58487503D01*
X105516941Y-58529235D01*
X105506071Y-58558844D01*
X105499303Y-58570100D01*
X105493479Y-58562107D01*
X105482347Y-58535641D01*
X105469241Y-58497075D01*
X105456770Y-58459200D01*
X105427027Y-58378045D01*
X105391175Y-58288281D01*
X105352657Y-58198115D01*
X105314918Y-58115752D01*
X105281400Y-58049400D01*
X105216228Y-57939083D01*
X105131719Y-57822508D01*
X105041668Y-57726539D01*
X104965153Y-57655700D01*
X105502452Y-57656366D01*
G36*
X105502452Y-57656366D02*
G01*
X105591869Y-57656494D01*
X105706880Y-57656772D01*
X105799983Y-57657231D01*
X105873276Y-57657965D01*
X105928860Y-57659064D01*
X105968832Y-57660620D01*
X105995293Y-57662726D01*
X106010341Y-57665473D01*
X106016076Y-57668953D01*
X106014596Y-57673258D01*
X106008000Y-57678480D01*
X105953434Y-57720488D01*
X105869240Y-57805436D01*
X105788282Y-57911123D01*
X105712246Y-58034704D01*
X105642817Y-58173336D01*
X105581679Y-58324174D01*
X105530519Y-58484375D01*
X105529643Y-58487503D01*
X105516941Y-58529235D01*
X105506071Y-58558844D01*
X105499303Y-58570100D01*
X105493479Y-58562107D01*
X105482347Y-58535641D01*
X105469241Y-58497075D01*
X105456770Y-58459200D01*
X105427027Y-58378045D01*
X105391175Y-58288281D01*
X105352657Y-58198115D01*
X105314918Y-58115752D01*
X105281400Y-58049400D01*
X105216228Y-57939083D01*
X105131719Y-57822508D01*
X105041668Y-57726539D01*
X104965153Y-57655700D01*
X105502452Y-57656366D01*
G37*
X105604654Y-55859889D02*
X105647644Y-55864403D01*
X105681836Y-55874000D01*
X105715900Y-55890335D01*
X105743506Y-55905805D01*
X105759645Y-55917136D01*
X105757286Y-55922695D01*
X105738616Y-55925904D01*
X105715304Y-55932395D01*
X105673679Y-55959820D01*
X105637677Y-56001889D01*
X105613856Y-56051976D01*
X105611345Y-56060585D01*
X105605015Y-56093495D01*
X105609133Y-56122107D01*
X105625056Y-56159432D01*
X105660990Y-56211960D01*
X105709812Y-56246654D01*
X105767161Y-56258700D01*
X105802072Y-56253098D01*
X105844835Y-56235024D01*
X105880596Y-56209529D01*
X105900251Y-56181869D01*
X105907258Y-56167588D01*
X105921549Y-56157100D01*
X105921972Y-56157118D01*
X105930151Y-56169355D01*
X105933277Y-56200264D01*
X105931946Y-56243982D01*
X105926750Y-56294647D01*
X105918284Y-56346396D01*
X105907143Y-56393366D01*
X105893920Y-56429695D01*
X105863797Y-56481420D01*
X105802245Y-56552522D01*
X105727910Y-56607304D01*
X105646050Y-56641275D01*
X105591299Y-56648364D01*
X105522830Y-56645845D01*
X105454096Y-56634384D01*
X105396580Y-56615183D01*
X105333057Y-56576295D01*
X105264434Y-56510725D01*
X105210249Y-56430150D01*
X105206472Y-56422825D01*
X105191200Y-56388395D01*
X105182264Y-56354189D01*
X105178071Y-56311683D01*
X105177027Y-56252350D01*
X105177065Y-56237727D01*
X105178639Y-56182838D01*
X105183706Y-56142850D01*
X105193890Y-56109165D01*
X105210810Y-56073185D01*
X105230222Y-56037875D01*
X105270760Y-55978912D01*
X105316795Y-55934116D01*
X105375125Y-55896165D01*
X105385500Y-55890497D01*
X105420760Y-55873644D01*
X105453973Y-55864040D01*
X105494274Y-55859740D01*
X105550800Y-55858802D01*
X105604654Y-55859889D01*
G36*
X105604654Y-55859889D02*
G01*
X105647644Y-55864403D01*
X105681836Y-55874000D01*
X105715900Y-55890335D01*
X105743506Y-55905805D01*
X105759645Y-55917136D01*
X105757286Y-55922695D01*
X105738616Y-55925904D01*
X105715304Y-55932395D01*
X105673679Y-55959820D01*
X105637677Y-56001889D01*
X105613856Y-56051976D01*
X105611345Y-56060585D01*
X105605015Y-56093495D01*
X105609133Y-56122107D01*
X105625056Y-56159432D01*
X105660990Y-56211960D01*
X105709812Y-56246654D01*
X105767161Y-56258700D01*
X105802072Y-56253098D01*
X105844835Y-56235024D01*
X105880596Y-56209529D01*
X105900251Y-56181869D01*
X105907258Y-56167588D01*
X105921549Y-56157100D01*
X105921972Y-56157118D01*
X105930151Y-56169355D01*
X105933277Y-56200264D01*
X105931946Y-56243982D01*
X105926750Y-56294647D01*
X105918284Y-56346396D01*
X105907143Y-56393366D01*
X105893920Y-56429695D01*
X105863797Y-56481420D01*
X105802245Y-56552522D01*
X105727910Y-56607304D01*
X105646050Y-56641275D01*
X105591299Y-56648364D01*
X105522830Y-56645845D01*
X105454096Y-56634384D01*
X105396580Y-56615183D01*
X105333057Y-56576295D01*
X105264434Y-56510725D01*
X105210249Y-56430150D01*
X105206472Y-56422825D01*
X105191200Y-56388395D01*
X105182264Y-56354189D01*
X105178071Y-56311683D01*
X105177027Y-56252350D01*
X105177065Y-56237727D01*
X105178639Y-56182838D01*
X105183706Y-56142850D01*
X105193890Y-56109165D01*
X105210810Y-56073185D01*
X105230222Y-56037875D01*
X105270760Y-55978912D01*
X105316795Y-55934116D01*
X105375125Y-55896165D01*
X105385500Y-55890497D01*
X105420760Y-55873644D01*
X105453973Y-55864040D01*
X105494274Y-55859740D01*
X105550800Y-55858802D01*
X105604654Y-55859889D01*
G37*
X105722933Y-55088370D02*
X105837880Y-55094530D01*
X105939338Y-55109216D01*
X106035610Y-55133932D01*
X106135000Y-55170179D01*
X106143777Y-55173822D01*
X106286443Y-55245487D01*
X106429471Y-55339989D01*
X106570140Y-55455114D01*
X106705724Y-55588644D01*
X106833500Y-55738365D01*
X106877950Y-55795146D01*
X106808100Y-55745120D01*
X106679590Y-55654270D01*
X106564180Y-55575680D01*
X106462335Y-55510270D01*
X106371050Y-55456470D01*
X106287321Y-55412714D01*
X106208143Y-55377435D01*
X106130510Y-55349063D01*
X106051419Y-55326033D01*
X105967864Y-55306776D01*
X105960773Y-55305329D01*
X105826620Y-55284003D01*
X105693548Y-55275111D01*
X105559040Y-55279196D01*
X105420579Y-55296805D01*
X105275647Y-55328480D01*
X105121726Y-55374767D01*
X104956298Y-55436210D01*
X104776846Y-55513354D01*
X104580852Y-55606743D01*
X104564147Y-55615012D01*
X104449492Y-55670775D01*
X104352499Y-55715737D01*
X104269242Y-55751399D01*
X104195796Y-55779268D01*
X104128232Y-55800845D01*
X104062626Y-55817637D01*
X103995050Y-55831146D01*
X103977735Y-55832639D01*
X103940959Y-55830604D01*
X103905744Y-55824197D01*
X103884001Y-55815135D01*
X103887323Y-55810368D01*
X103909601Y-55798721D01*
X103948115Y-55782888D01*
X103998301Y-55764877D01*
X104039093Y-55750481D01*
X104117040Y-55720132D01*
X104193462Y-55687164D01*
X104262700Y-55654194D01*
X104319098Y-55623845D01*
X104357000Y-55598735D01*
X104388750Y-55573096D01*
X104344300Y-55582523D01*
X104336110Y-55583855D01*
X104299498Y-55587043D01*
X104245591Y-55589612D01*
X104180254Y-55591326D01*
X104109350Y-55591950D01*
X104101737Y-55591946D01*
X104025019Y-55591307D01*
X103968937Y-55589285D01*
X103929118Y-55585477D01*
X103901188Y-55579480D01*
X103880771Y-55570892D01*
X103842691Y-55549834D01*
X103893471Y-55541091D01*
X103937854Y-55532922D01*
X104038887Y-55511003D01*
X104153720Y-55481892D01*
X104284267Y-55445037D01*
X104432442Y-55399886D01*
X104600157Y-55345887D01*
X104789327Y-55282486D01*
X104811166Y-55275068D01*
X104962895Y-55224854D01*
X105095287Y-55183838D01*
X105211858Y-55151255D01*
X105316123Y-55126335D01*
X105411598Y-55108313D01*
X105501797Y-55096420D01*
X105590236Y-55089889D01*
X105680430Y-55087952D01*
X105722933Y-55088370D01*
G36*
X105722933Y-55088370D02*
G01*
X105837880Y-55094530D01*
X105939338Y-55109216D01*
X106035610Y-55133932D01*
X106135000Y-55170179D01*
X106143777Y-55173822D01*
X106286443Y-55245487D01*
X106429471Y-55339989D01*
X106570140Y-55455114D01*
X106705724Y-55588644D01*
X106833500Y-55738365D01*
X106877950Y-55795146D01*
X106808100Y-55745120D01*
X106679590Y-55654270D01*
X106564180Y-55575680D01*
X106462335Y-55510270D01*
X106371050Y-55456470D01*
X106287321Y-55412714D01*
X106208143Y-55377435D01*
X106130510Y-55349063D01*
X106051419Y-55326033D01*
X105967864Y-55306776D01*
X105960773Y-55305329D01*
X105826620Y-55284003D01*
X105693548Y-55275111D01*
X105559040Y-55279196D01*
X105420579Y-55296805D01*
X105275647Y-55328480D01*
X105121726Y-55374767D01*
X104956298Y-55436210D01*
X104776846Y-55513354D01*
X104580852Y-55606743D01*
X104564147Y-55615012D01*
X104449492Y-55670775D01*
X104352499Y-55715737D01*
X104269242Y-55751399D01*
X104195796Y-55779268D01*
X104128232Y-55800845D01*
X104062626Y-55817637D01*
X103995050Y-55831146D01*
X103977735Y-55832639D01*
X103940959Y-55830604D01*
X103905744Y-55824197D01*
X103884001Y-55815135D01*
X103887323Y-55810368D01*
X103909601Y-55798721D01*
X103948115Y-55782888D01*
X103998301Y-55764877D01*
X104039093Y-55750481D01*
X104117040Y-55720132D01*
X104193462Y-55687164D01*
X104262700Y-55654194D01*
X104319098Y-55623845D01*
X104357000Y-55598735D01*
X104388750Y-55573096D01*
X104344300Y-55582523D01*
X104336110Y-55583855D01*
X104299498Y-55587043D01*
X104245591Y-55589612D01*
X104180254Y-55591326D01*
X104109350Y-55591950D01*
X104101737Y-55591946D01*
X104025019Y-55591307D01*
X103968937Y-55589285D01*
X103929118Y-55585477D01*
X103901188Y-55579480D01*
X103880771Y-55570892D01*
X103842691Y-55549834D01*
X103893471Y-55541091D01*
X103937854Y-55532922D01*
X104038887Y-55511003D01*
X104153720Y-55481892D01*
X104284267Y-55445037D01*
X104432442Y-55399886D01*
X104600157Y-55345887D01*
X104789327Y-55282486D01*
X104811166Y-55275068D01*
X104962895Y-55224854D01*
X105095287Y-55183838D01*
X105211858Y-55151255D01*
X105316123Y-55126335D01*
X105411598Y-55108313D01*
X105501797Y-55096420D01*
X105590236Y-55089889D01*
X105680430Y-55087952D01*
X105722933Y-55088370D01*
G37*
X102344866Y-52639315D02*
X102368750Y-52646858D01*
X102409701Y-52664619D01*
X102463385Y-52690400D01*
X102525466Y-52722000D01*
X102591611Y-52757221D01*
X102657484Y-52793864D01*
X102718750Y-52829730D01*
X102841237Y-52906633D01*
X103029777Y-53037274D01*
X103216239Y-53182181D01*
X103404512Y-53344440D01*
X103598487Y-53527133D01*
X103646993Y-53575025D01*
X103718325Y-53646805D01*
X103788499Y-53718855D01*
X103855103Y-53788585D01*
X103915721Y-53853405D01*
X103967940Y-53910722D01*
X104009345Y-53957948D01*
X104037522Y-53992490D01*
X104050058Y-54011758D01*
X104045006Y-54022473D01*
X104023633Y-54034990D01*
X104022828Y-54035299D01*
X103998490Y-54045370D01*
X103956926Y-54063237D01*
X103903750Y-54086466D01*
X103844576Y-54112623D01*
X103696150Y-54178610D01*
X103604300Y-54097293D01*
X103574467Y-54071202D01*
X103498400Y-54006970D01*
X103415018Y-53939255D01*
X103326585Y-53869669D01*
X103235362Y-53799825D01*
X103143612Y-53731335D01*
X103053598Y-53665812D01*
X102967581Y-53604869D01*
X102887823Y-53550117D01*
X102816588Y-53503171D01*
X102756138Y-53465642D01*
X102708734Y-53439143D01*
X102676639Y-53425287D01*
X102662115Y-53425686D01*
X102661346Y-53427111D01*
X102653637Y-53450376D01*
X102642462Y-53493956D01*
X102628657Y-53553740D01*
X102613061Y-53625618D01*
X102596509Y-53705478D01*
X102579840Y-53789211D01*
X102563890Y-53872705D01*
X102549497Y-53951850D01*
X102537498Y-54022535D01*
X102528729Y-54080650D01*
X102521697Y-54133219D01*
X102508642Y-54238417D01*
X102498065Y-54337512D01*
X102489598Y-54435754D01*
X102482872Y-54538393D01*
X102477519Y-54650681D01*
X102473170Y-54777866D01*
X102469457Y-54925200D01*
X102461457Y-55287150D01*
X102419878Y-55357000D01*
X102417107Y-55361690D01*
X102389833Y-55410159D01*
X102358665Y-55468556D01*
X102329815Y-55525275D01*
X102320431Y-55544010D01*
X102298766Y-55584783D01*
X102281898Y-55613096D01*
X102272862Y-55623700D01*
X102271472Y-55622550D01*
X102263362Y-55604143D01*
X102250661Y-55566452D01*
X102234552Y-55513578D01*
X102216222Y-55449620D01*
X102196855Y-55378677D01*
X102177635Y-55304851D01*
X102159747Y-55232239D01*
X102111746Y-55008265D01*
X102063938Y-54707548D01*
X102035352Y-54409673D01*
X102025901Y-54116704D01*
X102035497Y-53830704D01*
X102064054Y-53553736D01*
X102111484Y-53287864D01*
X102177701Y-53035150D01*
X102262616Y-52797658D01*
X102268979Y-52782358D01*
X102293654Y-52726221D01*
X102315714Y-52680762D01*
X102332957Y-52650312D01*
X102343181Y-52639200D01*
X102344866Y-52639315D01*
G36*
X102344866Y-52639315D02*
G01*
X102368750Y-52646858D01*
X102409701Y-52664619D01*
X102463385Y-52690400D01*
X102525466Y-52722000D01*
X102591611Y-52757221D01*
X102657484Y-52793864D01*
X102718750Y-52829730D01*
X102841237Y-52906633D01*
X103029777Y-53037274D01*
X103216239Y-53182181D01*
X103404512Y-53344440D01*
X103598487Y-53527133D01*
X103646993Y-53575025D01*
X103718325Y-53646805D01*
X103788499Y-53718855D01*
X103855103Y-53788585D01*
X103915721Y-53853405D01*
X103967940Y-53910722D01*
X104009345Y-53957948D01*
X104037522Y-53992490D01*
X104050058Y-54011758D01*
X104045006Y-54022473D01*
X104023633Y-54034990D01*
X104022828Y-54035299D01*
X103998490Y-54045370D01*
X103956926Y-54063237D01*
X103903750Y-54086466D01*
X103844576Y-54112623D01*
X103696150Y-54178610D01*
X103604300Y-54097293D01*
X103574467Y-54071202D01*
X103498400Y-54006970D01*
X103415018Y-53939255D01*
X103326585Y-53869669D01*
X103235362Y-53799825D01*
X103143612Y-53731335D01*
X103053598Y-53665812D01*
X102967581Y-53604869D01*
X102887823Y-53550117D01*
X102816588Y-53503171D01*
X102756138Y-53465642D01*
X102708734Y-53439143D01*
X102676639Y-53425287D01*
X102662115Y-53425686D01*
X102661346Y-53427111D01*
X102653637Y-53450376D01*
X102642462Y-53493956D01*
X102628657Y-53553740D01*
X102613061Y-53625618D01*
X102596509Y-53705478D01*
X102579840Y-53789211D01*
X102563890Y-53872705D01*
X102549497Y-53951850D01*
X102537498Y-54022535D01*
X102528729Y-54080650D01*
X102521697Y-54133219D01*
X102508642Y-54238417D01*
X102498065Y-54337512D01*
X102489598Y-54435754D01*
X102482872Y-54538393D01*
X102477519Y-54650681D01*
X102473170Y-54777866D01*
X102469457Y-54925200D01*
X102461457Y-55287150D01*
X102419878Y-55357000D01*
X102417107Y-55361690D01*
X102389833Y-55410159D01*
X102358665Y-55468556D01*
X102329815Y-55525275D01*
X102320431Y-55544010D01*
X102298766Y-55584783D01*
X102281898Y-55613096D01*
X102272862Y-55623700D01*
X102271472Y-55622550D01*
X102263362Y-55604143D01*
X102250661Y-55566452D01*
X102234552Y-55513578D01*
X102216222Y-55449620D01*
X102196855Y-55378677D01*
X102177635Y-55304851D01*
X102159747Y-55232239D01*
X102111746Y-55008265D01*
X102063938Y-54707548D01*
X102035352Y-54409673D01*
X102025901Y-54116704D01*
X102035497Y-53830704D01*
X102064054Y-53553736D01*
X102111484Y-53287864D01*
X102177701Y-53035150D01*
X102262616Y-52797658D01*
X102268979Y-52782358D01*
X102293654Y-52726221D01*
X102315714Y-52680762D01*
X102332957Y-52650312D01*
X102343181Y-52639200D01*
X102344866Y-52639315D01*
G37*
X106947800Y-56308606D02*
X106943478Y-56318630D01*
X106926245Y-56344788D01*
X106899847Y-56380406D01*
X106868587Y-56419925D01*
X106836768Y-56457780D01*
X106808694Y-56488411D01*
X106695049Y-56588648D01*
X106556059Y-56682226D01*
X106399693Y-56762685D01*
X106299490Y-56801424D01*
X106228877Y-56828724D01*
X106046537Y-56879040D01*
X105855600Y-56912332D01*
X105626946Y-56930027D01*
X105383035Y-56925807D01*
X105140101Y-56898581D01*
X104901544Y-56848901D01*
X104670766Y-56777318D01*
X104451168Y-56684384D01*
X104353377Y-56634142D01*
X104202865Y-56543167D01*
X104066344Y-56441038D01*
X103936762Y-56322798D01*
X103924221Y-56310189D01*
X103872214Y-56255585D01*
X103821805Y-56199346D01*
X103775656Y-56144802D01*
X103747921Y-56109790D01*
X103910754Y-56109790D01*
X103959252Y-56160369D01*
X104002670Y-56204380D01*
X104162741Y-56347598D01*
X104334838Y-56474551D01*
X104515784Y-56583471D01*
X104702404Y-56672590D01*
X104891523Y-56740138D01*
X105079963Y-56784349D01*
X105134754Y-56793520D01*
X105184738Y-56801010D01*
X105214275Y-56803660D01*
X105225895Y-56801424D01*
X105222130Y-56794257D01*
X105205508Y-56782115D01*
X105172743Y-56758056D01*
X105111128Y-56702466D01*
X105051670Y-56637411D01*
X105002664Y-56571508D01*
X104982355Y-56537833D01*
X104932019Y-56424350D01*
X104902710Y-56303524D01*
X104901890Y-56291628D01*
X105068577Y-56291628D01*
X105085768Y-56395075D01*
X105122523Y-56491235D01*
X105177699Y-56577306D01*
X105250156Y-56650488D01*
X105338751Y-56707983D01*
X105442344Y-56746989D01*
X105477029Y-56754989D01*
X105523098Y-56762804D01*
X105556644Y-56765239D01*
X105573615Y-56764295D01*
X105677970Y-56744737D01*
X105773484Y-56703853D01*
X105775295Y-56702579D01*
X106009548Y-56702579D01*
X106013092Y-56701979D01*
X106045242Y-56691932D01*
X106094103Y-56672271D01*
X106154964Y-56645257D01*
X106223119Y-56613155D01*
X106293859Y-56578226D01*
X106362476Y-56542734D01*
X106424260Y-56508943D01*
X106474505Y-56479113D01*
X106516942Y-56451553D01*
X106569444Y-56415841D01*
X106621353Y-56379119D01*
X106668564Y-56344413D01*
X106706974Y-56314749D01*
X106732479Y-56293154D01*
X106740974Y-56282652D01*
X106740196Y-56281531D01*
X106725651Y-56268009D01*
X106695740Y-56242710D01*
X106654233Y-56208774D01*
X106604900Y-56169340D01*
X106593362Y-56160198D01*
X106544994Y-56121595D01*
X106504914Y-56089165D01*
X106477019Y-56066081D01*
X106465200Y-56055517D01*
X106456484Y-56047172D01*
X106430469Y-56025116D01*
X106391710Y-55993443D01*
X106344388Y-55955461D01*
X106292682Y-55914478D01*
X106240773Y-55873803D01*
X106192841Y-55836746D01*
X106153065Y-55806615D01*
X106125627Y-55786719D01*
X106068371Y-55747326D01*
X106113571Y-55828388D01*
X106134296Y-55866384D01*
X106164868Y-55929118D01*
X106185163Y-55985445D01*
X106197132Y-56043286D01*
X106202726Y-56110564D01*
X106203895Y-56195200D01*
X106203295Y-56250090D01*
X106202090Y-56279692D01*
X106200932Y-56308144D01*
X106196051Y-56352097D01*
X106187841Y-56388475D01*
X106175492Y-56423800D01*
X106175140Y-56424682D01*
X106136425Y-56508146D01*
X106088434Y-56591333D01*
X106038270Y-56661925D01*
X106029643Y-56672732D01*
X106013649Y-56694295D01*
X106009548Y-56702579D01*
X105775295Y-56702579D01*
X105857867Y-56644505D01*
X105928826Y-56569554D01*
X105984072Y-56481861D01*
X106021311Y-56384286D01*
X106038254Y-56279692D01*
X106032608Y-56170939D01*
X106005411Y-56067706D01*
X105958576Y-55972938D01*
X105895609Y-55892196D01*
X105819384Y-55827058D01*
X105732780Y-55779105D01*
X105638673Y-55749917D01*
X105539940Y-55741072D01*
X105439458Y-55754151D01*
X105340104Y-55790732D01*
X105333524Y-55794136D01*
X105276089Y-55831993D01*
X105218339Y-55882088D01*
X105168116Y-55936907D01*
X105133265Y-55988932D01*
X105097452Y-56074067D01*
X105072091Y-56183692D01*
X105068577Y-56291628D01*
X104901890Y-56291628D01*
X104894150Y-56179318D01*
X104906061Y-56055698D01*
X104938164Y-55936628D01*
X104990182Y-55826073D01*
X105061836Y-55727998D01*
X105090533Y-55695124D01*
X105111138Y-55669678D01*
X105119000Y-55657385D01*
X105118983Y-55657269D01*
X105107154Y-55659748D01*
X105075196Y-55672038D01*
X105025760Y-55692968D01*
X104961496Y-55721366D01*
X104885056Y-55756062D01*
X104799091Y-55795885D01*
X104706250Y-55839665D01*
X104674475Y-55854763D01*
X104589276Y-55894986D01*
X104521031Y-55926592D01*
X104465287Y-55951475D01*
X104417593Y-55971526D01*
X104373497Y-55988639D01*
X104328550Y-56004705D01*
X104278298Y-56021618D01*
X104248898Y-56030976D01*
X104173204Y-56052831D01*
X104095654Y-56072741D01*
X104029102Y-56087317D01*
X103910754Y-56109790D01*
X103747921Y-56109790D01*
X103736429Y-56095283D01*
X103706785Y-56054119D01*
X103689385Y-56024640D01*
X103686891Y-56010176D01*
X103687717Y-56009687D01*
X103705828Y-56004938D01*
X103743286Y-55997440D01*
X103795204Y-55988120D01*
X103856698Y-55977907D01*
X103909337Y-55969173D01*
X104026064Y-55947214D01*
X104138724Y-55921831D01*
X104251101Y-55891811D01*
X104366980Y-55855937D01*
X104490145Y-55812993D01*
X104624381Y-55761766D01*
X104773471Y-55701039D01*
X104941200Y-55629596D01*
X105008556Y-55600646D01*
X105109583Y-55558426D01*
X105194262Y-55525043D01*
X105266710Y-55499056D01*
X105331045Y-55479026D01*
X105391386Y-55463514D01*
X105451849Y-55451079D01*
X105458663Y-55449851D01*
X105591199Y-55435859D01*
X105722959Y-55441484D01*
X105855753Y-55467341D01*
X105991390Y-55514049D01*
X106131679Y-55582221D01*
X106278430Y-55672476D01*
X106433450Y-55785428D01*
X106433744Y-55785657D01*
X106516199Y-55852199D01*
X106597883Y-55922291D01*
X106676412Y-55993507D01*
X106749402Y-56063423D01*
X106814467Y-56129613D01*
X106869224Y-56189651D01*
X106911288Y-56241113D01*
X106938275Y-56281573D01*
X106938656Y-56282652D01*
X106947800Y-56308606D01*
G36*
X106947800Y-56308606D02*
G01*
X106943478Y-56318630D01*
X106926245Y-56344788D01*
X106899847Y-56380406D01*
X106868587Y-56419925D01*
X106836768Y-56457780D01*
X106808694Y-56488411D01*
X106695049Y-56588648D01*
X106556059Y-56682226D01*
X106399693Y-56762685D01*
X106299490Y-56801424D01*
X106228877Y-56828724D01*
X106046537Y-56879040D01*
X105855600Y-56912332D01*
X105626946Y-56930027D01*
X105383035Y-56925807D01*
X105140101Y-56898581D01*
X104901544Y-56848901D01*
X104670766Y-56777318D01*
X104451168Y-56684384D01*
X104353377Y-56634142D01*
X104202865Y-56543167D01*
X104066344Y-56441038D01*
X103936762Y-56322798D01*
X103924221Y-56310189D01*
X103872214Y-56255585D01*
X103821805Y-56199346D01*
X103775656Y-56144802D01*
X103747921Y-56109790D01*
X103910754Y-56109790D01*
X103959252Y-56160369D01*
X104002670Y-56204380D01*
X104162741Y-56347598D01*
X104334838Y-56474551D01*
X104515784Y-56583471D01*
X104702404Y-56672590D01*
X104891523Y-56740138D01*
X105079963Y-56784349D01*
X105134754Y-56793520D01*
X105184738Y-56801010D01*
X105214275Y-56803660D01*
X105225895Y-56801424D01*
X105222130Y-56794257D01*
X105205508Y-56782115D01*
X105172743Y-56758056D01*
X105111128Y-56702466D01*
X105051670Y-56637411D01*
X105002664Y-56571508D01*
X104982355Y-56537833D01*
X104932019Y-56424350D01*
X104902710Y-56303524D01*
X104901890Y-56291628D01*
X105068577Y-56291628D01*
X105085768Y-56395075D01*
X105122523Y-56491235D01*
X105177699Y-56577306D01*
X105250156Y-56650488D01*
X105338751Y-56707983D01*
X105442344Y-56746989D01*
X105477029Y-56754989D01*
X105523098Y-56762804D01*
X105556644Y-56765239D01*
X105573615Y-56764295D01*
X105677970Y-56744737D01*
X105773484Y-56703853D01*
X105775295Y-56702579D01*
X106009548Y-56702579D01*
X106013092Y-56701979D01*
X106045242Y-56691932D01*
X106094103Y-56672271D01*
X106154964Y-56645257D01*
X106223119Y-56613155D01*
X106293859Y-56578226D01*
X106362476Y-56542734D01*
X106424260Y-56508943D01*
X106474505Y-56479113D01*
X106516942Y-56451553D01*
X106569444Y-56415841D01*
X106621353Y-56379119D01*
X106668564Y-56344413D01*
X106706974Y-56314749D01*
X106732479Y-56293154D01*
X106740974Y-56282652D01*
X106740196Y-56281531D01*
X106725651Y-56268009D01*
X106695740Y-56242710D01*
X106654233Y-56208774D01*
X106604900Y-56169340D01*
X106593362Y-56160198D01*
X106544994Y-56121595D01*
X106504914Y-56089165D01*
X106477019Y-56066081D01*
X106465200Y-56055517D01*
X106456484Y-56047172D01*
X106430469Y-56025116D01*
X106391710Y-55993443D01*
X106344388Y-55955461D01*
X106292682Y-55914478D01*
X106240773Y-55873803D01*
X106192841Y-55836746D01*
X106153065Y-55806615D01*
X106125627Y-55786719D01*
X106068371Y-55747326D01*
X106113571Y-55828388D01*
X106134296Y-55866384D01*
X106164868Y-55929118D01*
X106185163Y-55985445D01*
X106197132Y-56043286D01*
X106202726Y-56110564D01*
X106203895Y-56195200D01*
X106203295Y-56250090D01*
X106202090Y-56279692D01*
X106200932Y-56308144D01*
X106196051Y-56352097D01*
X106187841Y-56388475D01*
X106175492Y-56423800D01*
X106175140Y-56424682D01*
X106136425Y-56508146D01*
X106088434Y-56591333D01*
X106038270Y-56661925D01*
X106029643Y-56672732D01*
X106013649Y-56694295D01*
X106009548Y-56702579D01*
X105775295Y-56702579D01*
X105857867Y-56644505D01*
X105928826Y-56569554D01*
X105984072Y-56481861D01*
X106021311Y-56384286D01*
X106038254Y-56279692D01*
X106032608Y-56170939D01*
X106005411Y-56067706D01*
X105958576Y-55972938D01*
X105895609Y-55892196D01*
X105819384Y-55827058D01*
X105732780Y-55779105D01*
X105638673Y-55749917D01*
X105539940Y-55741072D01*
X105439458Y-55754151D01*
X105340104Y-55790732D01*
X105333524Y-55794136D01*
X105276089Y-55831993D01*
X105218339Y-55882088D01*
X105168116Y-55936907D01*
X105133265Y-55988932D01*
X105097452Y-56074067D01*
X105072091Y-56183692D01*
X105068577Y-56291628D01*
X104901890Y-56291628D01*
X104894150Y-56179318D01*
X104906061Y-56055698D01*
X104938164Y-55936628D01*
X104990182Y-55826073D01*
X105061836Y-55727998D01*
X105090533Y-55695124D01*
X105111138Y-55669678D01*
X105119000Y-55657385D01*
X105118983Y-55657269D01*
X105107154Y-55659748D01*
X105075196Y-55672038D01*
X105025760Y-55692968D01*
X104961496Y-55721366D01*
X104885056Y-55756062D01*
X104799091Y-55795885D01*
X104706250Y-55839665D01*
X104674475Y-55854763D01*
X104589276Y-55894986D01*
X104521031Y-55926592D01*
X104465287Y-55951475D01*
X104417593Y-55971526D01*
X104373497Y-55988639D01*
X104328550Y-56004705D01*
X104278298Y-56021618D01*
X104248898Y-56030976D01*
X104173204Y-56052831D01*
X104095654Y-56072741D01*
X104029102Y-56087317D01*
X103910754Y-56109790D01*
X103747921Y-56109790D01*
X103736429Y-56095283D01*
X103706785Y-56054119D01*
X103689385Y-56024640D01*
X103686891Y-56010176D01*
X103687717Y-56009687D01*
X103705828Y-56004938D01*
X103743286Y-55997440D01*
X103795204Y-55988120D01*
X103856698Y-55977907D01*
X103909337Y-55969173D01*
X104026064Y-55947214D01*
X104138724Y-55921831D01*
X104251101Y-55891811D01*
X104366980Y-55855937D01*
X104490145Y-55812993D01*
X104624381Y-55761766D01*
X104773471Y-55701039D01*
X104941200Y-55629596D01*
X105008556Y-55600646D01*
X105109583Y-55558426D01*
X105194262Y-55525043D01*
X105266710Y-55499056D01*
X105331045Y-55479026D01*
X105391386Y-55463514D01*
X105451849Y-55451079D01*
X105458663Y-55449851D01*
X105591199Y-55435859D01*
X105722959Y-55441484D01*
X105855753Y-55467341D01*
X105991390Y-55514049D01*
X106131679Y-55582221D01*
X106278430Y-55672476D01*
X106433450Y-55785428D01*
X106433744Y-55785657D01*
X106516199Y-55852199D01*
X106597883Y-55922291D01*
X106676412Y-55993507D01*
X106749402Y-56063423D01*
X106814467Y-56129613D01*
X106869224Y-56189651D01*
X106911288Y-56241113D01*
X106938275Y-56281573D01*
X106938656Y-56282652D01*
X106947800Y-56308606D01*
G37*
X108832704Y-55341625D02*
X108762504Y-55584833D01*
X108752648Y-55616871D01*
X108739089Y-55667744D01*
X108730968Y-55707967D01*
X108729774Y-55730883D01*
X108734328Y-55745467D01*
X108747440Y-55781037D01*
X108766397Y-55829277D01*
X108788833Y-55884050D01*
X108856119Y-56064402D01*
X108915571Y-56264447D01*
X108963388Y-56472706D01*
X108964001Y-56475834D01*
X108974337Y-56530266D01*
X108982315Y-56578104D01*
X108988249Y-56623918D01*
X108992449Y-56672278D01*
X108995228Y-56727756D01*
X108996896Y-56794922D01*
X108997765Y-56878346D01*
X108998148Y-56982600D01*
X108998044Y-57064377D01*
X108997304Y-57152429D01*
X108995988Y-57231160D01*
X108994185Y-57296550D01*
X108991986Y-57344580D01*
X108989478Y-57371230D01*
X108980106Y-57423311D01*
X109110128Y-57471052D01*
X109260870Y-57528266D01*
X109586047Y-57663545D01*
X109917688Y-57816824D01*
X110251099Y-57985672D01*
X110581584Y-58167655D01*
X110904450Y-58360343D01*
X111215000Y-58561304D01*
X111238486Y-58577208D01*
X111302814Y-58621311D01*
X111366580Y-58665718D01*
X111426382Y-58707992D01*
X111478818Y-58745695D01*
X111520484Y-58776389D01*
X111547979Y-58797635D01*
X111557900Y-58806996D01*
X111557693Y-58808587D01*
X111554959Y-58809361D01*
X111546513Y-58805710D01*
X111529215Y-58795788D01*
X111499924Y-58777749D01*
X111455500Y-58749745D01*
X111392800Y-58709929D01*
X111160179Y-58565230D01*
X110875015Y-58397485D01*
X110596332Y-58245029D01*
X110319028Y-58105203D01*
X110038001Y-57975349D01*
X109748150Y-57852808D01*
X109672000Y-57822623D01*
X109581293Y-57787958D01*
X109486674Y-57752929D01*
X109391218Y-57718578D01*
X109297998Y-57685948D01*
X109210085Y-57656080D01*
X109130554Y-57630018D01*
X109062477Y-57608804D01*
X109008926Y-57593479D01*
X108972975Y-57585087D01*
X108957697Y-57584670D01*
X108957625Y-57584754D01*
X108952721Y-57598923D01*
X108943085Y-57632631D01*
X108930076Y-57680952D01*
X108915058Y-57738960D01*
X108871133Y-57893526D01*
X108804223Y-58080959D01*
X108720222Y-58272527D01*
X108653311Y-58413105D01*
X108826081Y-58511529D01*
X108995946Y-58611277D01*
X109250657Y-58771737D01*
X109498934Y-58940931D01*
X109734569Y-59114572D01*
X109951350Y-59288372D01*
X109965099Y-59299934D01*
X110043260Y-59366219D01*
X110103803Y-59418581D01*
X110146497Y-59456719D01*
X110171110Y-59480337D01*
X110177410Y-59489135D01*
X110165165Y-59482815D01*
X110134145Y-59461080D01*
X110084117Y-59423630D01*
X110014850Y-59370167D01*
X109759628Y-59179747D01*
X109479840Y-58988020D01*
X109195700Y-58809737D01*
X109192007Y-58807533D01*
X109133476Y-58773603D01*
X109064409Y-58735033D01*
X108988891Y-58693955D01*
X108911010Y-58652502D01*
X108834853Y-58612806D01*
X108764507Y-58576997D01*
X108704058Y-58547209D01*
X108657594Y-58525573D01*
X108629201Y-58514221D01*
X108618669Y-58512810D01*
X108604491Y-58518621D01*
X108587067Y-58536266D01*
X108563237Y-58569127D01*
X108529840Y-58620587D01*
X108432731Y-58763471D01*
X108302131Y-58931560D01*
X108164363Y-59085627D01*
X108052833Y-59201104D01*
X108163733Y-59288827D01*
X108293176Y-59394487D01*
X108522517Y-59597152D01*
X108747432Y-59815036D01*
X108961703Y-60041999D01*
X109159111Y-60271900D01*
X109161634Y-60275032D01*
X109168578Y-60285639D01*
X109159595Y-60279582D01*
X109136171Y-60258263D01*
X109099798Y-60223082D01*
X109051962Y-60175439D01*
X108994152Y-60116735D01*
X108883757Y-60005585D01*
X108674565Y-59805552D01*
X108472852Y-59626939D01*
X108279391Y-59470418D01*
X108094955Y-59336659D01*
X107991160Y-59266089D01*
X107849141Y-59382068D01*
X107673016Y-59517215D01*
X107421610Y-59682641D01*
X107157581Y-59826040D01*
X106880980Y-59947389D01*
X106591857Y-60046667D01*
X106290263Y-60123851D01*
X105976250Y-60178922D01*
X105973471Y-60179300D01*
X105876018Y-60189476D01*
X105760286Y-60196711D01*
X105632489Y-60201008D01*
X105498844Y-60202369D01*
X105365567Y-60200798D01*
X105238873Y-60196296D01*
X105124979Y-60188867D01*
X105030100Y-60178513D01*
X104994704Y-60173366D01*
X104688612Y-60117543D01*
X104399078Y-60043448D01*
X104124417Y-59950361D01*
X103862940Y-59837565D01*
X103612962Y-59704340D01*
X103372795Y-59549968D01*
X103140753Y-59373731D01*
X103010356Y-59266803D01*
X102964033Y-59295432D01*
X102964014Y-59295443D01*
X102928482Y-59319164D01*
X102877433Y-59355588D01*
X102815126Y-59401485D01*
X102745820Y-59453623D01*
X102673771Y-59508770D01*
X102603237Y-59563694D01*
X102538478Y-59615165D01*
X102483750Y-59659949D01*
X102468882Y-59672711D01*
X102424405Y-59712889D01*
X102366885Y-59766755D01*
X102299553Y-59831200D01*
X102225640Y-59903117D01*
X102148379Y-59979397D01*
X102071000Y-60056931D01*
X102020156Y-60108220D01*
X101952751Y-60175999D01*
X101892600Y-60236234D01*
X101841821Y-60286818D01*
X101802530Y-60325643D01*
X101776846Y-60350602D01*
X101766884Y-60359589D01*
X101766946Y-60358050D01*
X101777755Y-60343890D01*
X101799382Y-60319525D01*
X101804270Y-60314175D01*
X101839007Y-60273827D01*
X101870814Y-60233800D01*
X101872935Y-60230976D01*
X101928492Y-60161965D01*
X102000330Y-60079999D01*
X102085312Y-59988178D01*
X102180304Y-59889603D01*
X102282168Y-59787375D01*
X102387769Y-59684597D01*
X102493969Y-59584369D01*
X102597633Y-59489793D01*
X102695625Y-59403970D01*
X102784807Y-59330000D01*
X102946164Y-59200872D01*
X102841113Y-59090481D01*
X102775882Y-59020088D01*
X102617937Y-58830883D01*
X102480976Y-58636572D01*
X102477887Y-58631775D01*
X102442340Y-58577746D01*
X102416697Y-58542139D01*
X102398097Y-58521781D01*
X102383675Y-58513493D01*
X102370568Y-58514101D01*
X102352473Y-58521405D01*
X102314933Y-58538765D01*
X102263734Y-58563528D01*
X102203548Y-58593337D01*
X102139046Y-58625836D01*
X102074899Y-58658671D01*
X102015778Y-58689484D01*
X101966355Y-58715921D01*
X101931300Y-58735626D01*
X101928631Y-58737205D01*
X101890954Y-58759573D01*
X101841096Y-58789278D01*
X101784724Y-58822931D01*
X101727506Y-58857144D01*
X101675109Y-58888529D01*
X101633202Y-58913695D01*
X101607450Y-58929256D01*
X101590560Y-58940081D01*
X101575700Y-58951100D01*
X101573608Y-58952761D01*
X101554804Y-58965911D01*
X101520155Y-58989376D01*
X101473658Y-59020463D01*
X101419309Y-59056479D01*
X101366742Y-59092024D01*
X101294675Y-59142337D01*
X101214769Y-59199378D01*
X101133504Y-59258519D01*
X101057359Y-59315129D01*
X101024544Y-59339841D01*
X100951750Y-59394572D01*
X100897006Y-59435509D01*
X100858713Y-59463762D01*
X100835277Y-59480443D01*
X100825099Y-59486661D01*
X100826583Y-59483527D01*
X100838133Y-59472151D01*
X100858150Y-59453644D01*
X100923710Y-59394877D01*
X101090012Y-59254504D01*
X101273145Y-59110427D01*
X101468195Y-58966119D01*
X101670250Y-58825054D01*
X101874397Y-58690705D01*
X102075724Y-58566544D01*
X102269317Y-58456045D01*
X102346983Y-58413715D01*
X102279926Y-58272832D01*
X102225395Y-58152394D01*
X102145216Y-57944077D01*
X102083532Y-57735483D01*
X102068877Y-57678467D01*
X102056132Y-57630784D01*
X102046762Y-57597801D01*
X102042130Y-57584496D01*
X102037284Y-57584456D01*
X102011798Y-57590156D01*
X101967801Y-57602355D01*
X101908855Y-57619955D01*
X101838517Y-57641860D01*
X101760348Y-57666970D01*
X101677906Y-57694190D01*
X101594750Y-57722422D01*
X101489409Y-57759850D01*
X101227769Y-57861569D01*
X100955090Y-57979059D01*
X100675640Y-58110194D01*
X100393684Y-58252849D01*
X100113490Y-58404896D01*
X99839323Y-58564210D01*
X99575450Y-58728666D01*
X99531954Y-58756742D01*
X99490405Y-58783317D01*
X99464096Y-58799588D01*
X99449576Y-58807579D01*
X99443394Y-58809310D01*
X99442100Y-58806803D01*
X99446750Y-58801526D01*
X99469398Y-58783310D01*
X99508189Y-58754558D01*
X99560124Y-58717366D01*
X99622205Y-58673833D01*
X99691432Y-58626053D01*
X99764806Y-58576126D01*
X99839329Y-58526148D01*
X99912000Y-58478215D01*
X100006216Y-58417453D01*
X100310616Y-58231000D01*
X100623910Y-58053285D01*
X100941390Y-57886711D01*
X101258347Y-57733682D01*
X101570075Y-57596600D01*
X101871865Y-57477868D01*
X101907627Y-57464600D01*
X101958652Y-57444813D01*
X101991168Y-57430155D01*
X102008767Y-57418557D01*
X102015046Y-57407949D01*
X102013596Y-57396262D01*
X102013452Y-57395789D01*
X102009755Y-57370712D01*
X102006482Y-57324785D01*
X102003686Y-57262395D01*
X102001420Y-57187926D01*
X101999740Y-57105766D01*
X101998699Y-57020298D01*
X101998352Y-56935909D01*
X101998751Y-56856984D01*
X101999952Y-56787909D01*
X102002009Y-56733069D01*
X102004974Y-56696850D01*
X102005147Y-56695571D01*
X102010137Y-56659491D01*
X102013532Y-56639911D01*
X102015705Y-56638609D01*
X102017025Y-56657367D01*
X102017865Y-56697963D01*
X102018594Y-56762179D01*
X102019812Y-56822538D01*
X102040239Y-57094501D01*
X102084661Y-57359168D01*
X102152559Y-57615646D01*
X102243411Y-57863043D01*
X102356697Y-58100467D01*
X102491898Y-58327026D01*
X102648493Y-58541826D01*
X102825961Y-58743978D01*
X103023783Y-58932587D01*
X103241438Y-59106762D01*
X103478406Y-59265610D01*
X103703525Y-59391830D01*
X103967572Y-59512877D01*
X104240970Y-59611043D01*
X104522361Y-59686092D01*
X104810386Y-59737787D01*
X105103686Y-59765890D01*
X105400903Y-59770164D01*
X105700677Y-59750372D01*
X106001650Y-59706276D01*
X106004662Y-59705711D01*
X106275494Y-59643123D01*
X106537901Y-59559368D01*
X106790566Y-59455580D01*
X107032168Y-59332893D01*
X107261391Y-59192441D01*
X107476913Y-59035358D01*
X107677418Y-58862779D01*
X107861586Y-58675836D01*
X108028098Y-58475665D01*
X108175636Y-58263399D01*
X108302881Y-58040173D01*
X108408514Y-57807120D01*
X108491216Y-57565374D01*
X108492652Y-57560378D01*
X108555642Y-57296921D01*
X108593280Y-57035028D01*
X108605566Y-56774691D01*
X108592500Y-56515899D01*
X108554080Y-56258643D01*
X108490307Y-56002913D01*
X108401180Y-55748699D01*
X108365492Y-55664184D01*
X108249868Y-55433706D01*
X108111881Y-55212602D01*
X107952973Y-55002387D01*
X107774589Y-54804577D01*
X107578173Y-54620686D01*
X107365166Y-54452230D01*
X107137014Y-54300724D01*
X107003092Y-54227056D01*
X107278000Y-54227056D01*
X107278394Y-54228238D01*
X107292360Y-54240508D01*
X107322305Y-54260200D01*
X107362740Y-54283647D01*
X107443570Y-54330895D01*
X107543998Y-54395151D01*
X107648966Y-54467157D01*
X107751132Y-54541859D01*
X107843150Y-54614204D01*
X107848132Y-54618312D01*
X107964310Y-54720268D01*
X108083377Y-54835480D01*
X108200446Y-54958609D01*
X108310630Y-55084312D01*
X108409042Y-55207248D01*
X108490795Y-55322075D01*
X108491816Y-55323624D01*
X108516227Y-55359690D01*
X108534751Y-55385337D01*
X108543449Y-55395100D01*
X108543737Y-55394894D01*
X108545681Y-55379772D01*
X108547080Y-55343124D01*
X108547967Y-55288377D01*
X108548371Y-55218960D01*
X108548325Y-55138301D01*
X108547858Y-55049829D01*
X108547001Y-54956972D01*
X108545786Y-54863159D01*
X108544242Y-54771819D01*
X108542401Y-54686379D01*
X108540294Y-54610269D01*
X108537952Y-54546916D01*
X108535404Y-54499750D01*
X108527610Y-54398490D01*
X108499798Y-54138042D01*
X108460762Y-53886517D01*
X108408927Y-53633118D01*
X108407039Y-53624798D01*
X108389544Y-53545698D01*
X108375995Y-53488838D01*
X108363190Y-53452343D01*
X108347925Y-53434337D01*
X108327000Y-53432942D01*
X108297211Y-53446283D01*
X108255357Y-53472484D01*
X108198236Y-53509669D01*
X108132830Y-53552234D01*
X108056518Y-53603302D01*
X107982736Y-53653920D01*
X107921016Y-53697626D01*
X107871707Y-53733336D01*
X107825388Y-53766764D01*
X107789307Y-53792679D01*
X107768616Y-53807371D01*
X107739832Y-53828424D01*
X107694544Y-53863646D01*
X107640669Y-53907074D01*
X107581354Y-53956017D01*
X107519744Y-54007786D01*
X107458983Y-54059689D01*
X107402216Y-54109036D01*
X107352590Y-54153136D01*
X107313248Y-54189300D01*
X107287337Y-54214837D01*
X107278000Y-54227056D01*
X107003092Y-54227056D01*
X106895159Y-54167684D01*
X106761294Y-54104064D01*
X106553331Y-54017588D01*
X106344889Y-53946993D01*
X106130175Y-53890620D01*
X105903394Y-53846811D01*
X105658750Y-53813908D01*
X105493650Y-53795814D01*
X105665100Y-53801299D01*
X105762371Y-53805968D01*
X106022852Y-53832711D01*
X106289763Y-53879749D01*
X106558158Y-53946101D01*
X106823086Y-54030786D01*
X106920621Y-54065663D01*
X106956436Y-54022469D01*
X107038865Y-53925307D01*
X107227561Y-53717771D01*
X107426223Y-53518053D01*
X107631232Y-53329402D01*
X107838971Y-53155068D01*
X108045820Y-52998301D01*
X108248162Y-52862349D01*
X108250916Y-52860629D01*
X108307217Y-52826685D01*
X108370923Y-52790135D01*
X108437840Y-52753175D01*
X108503775Y-52718006D01*
X108564535Y-52686826D01*
X108615925Y-52661832D01*
X108653753Y-52645224D01*
X108673825Y-52639200D01*
X108680729Y-52642079D01*
X108697137Y-52662777D01*
X108718885Y-52704409D01*
X108746544Y-52768132D01*
X108780686Y-52855100D01*
X108813989Y-52948309D01*
X108869885Y-53132733D01*
X108916999Y-53325940D01*
X108953104Y-53518286D01*
X108975971Y-53700129D01*
X108978042Y-53726061D01*
X108982614Y-53812614D01*
X108985439Y-53915634D01*
X108986590Y-54029889D01*
X108986140Y-54150150D01*
X108984165Y-54271188D01*
X108980737Y-54387771D01*
X108975929Y-54494671D01*
X108969817Y-54586657D01*
X108962472Y-54658500D01*
X108942976Y-54795223D01*
X108893059Y-55077507D01*
X108860734Y-55218960D01*
X108832704Y-55341625D01*
G36*
X108832704Y-55341625D02*
G01*
X108762504Y-55584833D01*
X108752648Y-55616871D01*
X108739089Y-55667744D01*
X108730968Y-55707967D01*
X108729774Y-55730883D01*
X108734328Y-55745467D01*
X108747440Y-55781037D01*
X108766397Y-55829277D01*
X108788833Y-55884050D01*
X108856119Y-56064402D01*
X108915571Y-56264447D01*
X108963388Y-56472706D01*
X108964001Y-56475834D01*
X108974337Y-56530266D01*
X108982315Y-56578104D01*
X108988249Y-56623918D01*
X108992449Y-56672278D01*
X108995228Y-56727756D01*
X108996896Y-56794922D01*
X108997765Y-56878346D01*
X108998148Y-56982600D01*
X108998044Y-57064377D01*
X108997304Y-57152429D01*
X108995988Y-57231160D01*
X108994185Y-57296550D01*
X108991986Y-57344580D01*
X108989478Y-57371230D01*
X108980106Y-57423311D01*
X109110128Y-57471052D01*
X109260870Y-57528266D01*
X109586047Y-57663545D01*
X109917688Y-57816824D01*
X110251099Y-57985672D01*
X110581584Y-58167655D01*
X110904450Y-58360343D01*
X111215000Y-58561304D01*
X111238486Y-58577208D01*
X111302814Y-58621311D01*
X111366580Y-58665718D01*
X111426382Y-58707992D01*
X111478818Y-58745695D01*
X111520484Y-58776389D01*
X111547979Y-58797635D01*
X111557900Y-58806996D01*
X111557693Y-58808587D01*
X111554959Y-58809361D01*
X111546513Y-58805710D01*
X111529215Y-58795788D01*
X111499924Y-58777749D01*
X111455500Y-58749745D01*
X111392800Y-58709929D01*
X111160179Y-58565230D01*
X110875015Y-58397485D01*
X110596332Y-58245029D01*
X110319028Y-58105203D01*
X110038001Y-57975349D01*
X109748150Y-57852808D01*
X109672000Y-57822623D01*
X109581293Y-57787958D01*
X109486674Y-57752929D01*
X109391218Y-57718578D01*
X109297998Y-57685948D01*
X109210085Y-57656080D01*
X109130554Y-57630018D01*
X109062477Y-57608804D01*
X109008926Y-57593479D01*
X108972975Y-57585087D01*
X108957697Y-57584670D01*
X108957625Y-57584754D01*
X108952721Y-57598923D01*
X108943085Y-57632631D01*
X108930076Y-57680952D01*
X108915058Y-57738960D01*
X108871133Y-57893526D01*
X108804223Y-58080959D01*
X108720222Y-58272527D01*
X108653311Y-58413105D01*
X108826081Y-58511529D01*
X108995946Y-58611277D01*
X109250657Y-58771737D01*
X109498934Y-58940931D01*
X109734569Y-59114572D01*
X109951350Y-59288372D01*
X109965099Y-59299934D01*
X110043260Y-59366219D01*
X110103803Y-59418581D01*
X110146497Y-59456719D01*
X110171110Y-59480337D01*
X110177410Y-59489135D01*
X110165165Y-59482815D01*
X110134145Y-59461080D01*
X110084117Y-59423630D01*
X110014850Y-59370167D01*
X109759628Y-59179747D01*
X109479840Y-58988020D01*
X109195700Y-58809737D01*
X109192007Y-58807533D01*
X109133476Y-58773603D01*
X109064409Y-58735033D01*
X108988891Y-58693955D01*
X108911010Y-58652502D01*
X108834853Y-58612806D01*
X108764507Y-58576997D01*
X108704058Y-58547209D01*
X108657594Y-58525573D01*
X108629201Y-58514221D01*
X108618669Y-58512810D01*
X108604491Y-58518621D01*
X108587067Y-58536266D01*
X108563237Y-58569127D01*
X108529840Y-58620587D01*
X108432731Y-58763471D01*
X108302131Y-58931560D01*
X108164363Y-59085627D01*
X108052833Y-59201104D01*
X108163733Y-59288827D01*
X108293176Y-59394487D01*
X108522517Y-59597152D01*
X108747432Y-59815036D01*
X108961703Y-60041999D01*
X109159111Y-60271900D01*
X109161634Y-60275032D01*
X109168578Y-60285639D01*
X109159595Y-60279582D01*
X109136171Y-60258263D01*
X109099798Y-60223082D01*
X109051962Y-60175439D01*
X108994152Y-60116735D01*
X108883757Y-60005585D01*
X108674565Y-59805552D01*
X108472852Y-59626939D01*
X108279391Y-59470418D01*
X108094955Y-59336659D01*
X107991160Y-59266089D01*
X107849141Y-59382068D01*
X107673016Y-59517215D01*
X107421610Y-59682641D01*
X107157581Y-59826040D01*
X106880980Y-59947389D01*
X106591857Y-60046667D01*
X106290263Y-60123851D01*
X105976250Y-60178922D01*
X105973471Y-60179300D01*
X105876018Y-60189476D01*
X105760286Y-60196711D01*
X105632489Y-60201008D01*
X105498844Y-60202369D01*
X105365567Y-60200798D01*
X105238873Y-60196296D01*
X105124979Y-60188867D01*
X105030100Y-60178513D01*
X104994704Y-60173366D01*
X104688612Y-60117543D01*
X104399078Y-60043448D01*
X104124417Y-59950361D01*
X103862940Y-59837565D01*
X103612962Y-59704340D01*
X103372795Y-59549968D01*
X103140753Y-59373731D01*
X103010356Y-59266803D01*
X102964033Y-59295432D01*
X102964014Y-59295443D01*
X102928482Y-59319164D01*
X102877433Y-59355588D01*
X102815126Y-59401485D01*
X102745820Y-59453623D01*
X102673771Y-59508770D01*
X102603237Y-59563694D01*
X102538478Y-59615165D01*
X102483750Y-59659949D01*
X102468882Y-59672711D01*
X102424405Y-59712889D01*
X102366885Y-59766755D01*
X102299553Y-59831200D01*
X102225640Y-59903117D01*
X102148379Y-59979397D01*
X102071000Y-60056931D01*
X102020156Y-60108220D01*
X101952751Y-60175999D01*
X101892600Y-60236234D01*
X101841821Y-60286818D01*
X101802530Y-60325643D01*
X101776846Y-60350602D01*
X101766884Y-60359589D01*
X101766946Y-60358050D01*
X101777755Y-60343890D01*
X101799382Y-60319525D01*
X101804270Y-60314175D01*
X101839007Y-60273827D01*
X101870814Y-60233800D01*
X101872935Y-60230976D01*
X101928492Y-60161965D01*
X102000330Y-60079999D01*
X102085312Y-59988178D01*
X102180304Y-59889603D01*
X102282168Y-59787375D01*
X102387769Y-59684597D01*
X102493969Y-59584369D01*
X102597633Y-59489793D01*
X102695625Y-59403970D01*
X102784807Y-59330000D01*
X102946164Y-59200872D01*
X102841113Y-59090481D01*
X102775882Y-59020088D01*
X102617937Y-58830883D01*
X102480976Y-58636572D01*
X102477887Y-58631775D01*
X102442340Y-58577746D01*
X102416697Y-58542139D01*
X102398097Y-58521781D01*
X102383675Y-58513493D01*
X102370568Y-58514101D01*
X102352473Y-58521405D01*
X102314933Y-58538765D01*
X102263734Y-58563528D01*
X102203548Y-58593337D01*
X102139046Y-58625836D01*
X102074899Y-58658671D01*
X102015778Y-58689484D01*
X101966355Y-58715921D01*
X101931300Y-58735626D01*
X101928631Y-58737205D01*
X101890954Y-58759573D01*
X101841096Y-58789278D01*
X101784724Y-58822931D01*
X101727506Y-58857144D01*
X101675109Y-58888529D01*
X101633202Y-58913695D01*
X101607450Y-58929256D01*
X101590560Y-58940081D01*
X101575700Y-58951100D01*
X101573608Y-58952761D01*
X101554804Y-58965911D01*
X101520155Y-58989376D01*
X101473658Y-59020463D01*
X101419309Y-59056479D01*
X101366742Y-59092024D01*
X101294675Y-59142337D01*
X101214769Y-59199378D01*
X101133504Y-59258519D01*
X101057359Y-59315129D01*
X101024544Y-59339841D01*
X100951750Y-59394572D01*
X100897006Y-59435509D01*
X100858713Y-59463762D01*
X100835277Y-59480443D01*
X100825099Y-59486661D01*
X100826583Y-59483527D01*
X100838133Y-59472151D01*
X100858150Y-59453644D01*
X100923710Y-59394877D01*
X101090012Y-59254504D01*
X101273145Y-59110427D01*
X101468195Y-58966119D01*
X101670250Y-58825054D01*
X101874397Y-58690705D01*
X102075724Y-58566544D01*
X102269317Y-58456045D01*
X102346983Y-58413715D01*
X102279926Y-58272832D01*
X102225395Y-58152394D01*
X102145216Y-57944077D01*
X102083532Y-57735483D01*
X102068877Y-57678467D01*
X102056132Y-57630784D01*
X102046762Y-57597801D01*
X102042130Y-57584496D01*
X102037284Y-57584456D01*
X102011798Y-57590156D01*
X101967801Y-57602355D01*
X101908855Y-57619955D01*
X101838517Y-57641860D01*
X101760348Y-57666970D01*
X101677906Y-57694190D01*
X101594750Y-57722422D01*
X101489409Y-57759850D01*
X101227769Y-57861569D01*
X100955090Y-57979059D01*
X100675640Y-58110194D01*
X100393684Y-58252849D01*
X100113490Y-58404896D01*
X99839323Y-58564210D01*
X99575450Y-58728666D01*
X99531954Y-58756742D01*
X99490405Y-58783317D01*
X99464096Y-58799588D01*
X99449576Y-58807579D01*
X99443394Y-58809310D01*
X99442100Y-58806803D01*
X99446750Y-58801526D01*
X99469398Y-58783310D01*
X99508189Y-58754558D01*
X99560124Y-58717366D01*
X99622205Y-58673833D01*
X99691432Y-58626053D01*
X99764806Y-58576126D01*
X99839329Y-58526148D01*
X99912000Y-58478215D01*
X100006216Y-58417453D01*
X100310616Y-58231000D01*
X100623910Y-58053285D01*
X100941390Y-57886711D01*
X101258347Y-57733682D01*
X101570075Y-57596600D01*
X101871865Y-57477868D01*
X101907627Y-57464600D01*
X101958652Y-57444813D01*
X101991168Y-57430155D01*
X102008767Y-57418557D01*
X102015046Y-57407949D01*
X102013596Y-57396262D01*
X102013452Y-57395789D01*
X102009755Y-57370712D01*
X102006482Y-57324785D01*
X102003686Y-57262395D01*
X102001420Y-57187926D01*
X101999740Y-57105766D01*
X101998699Y-57020298D01*
X101998352Y-56935909D01*
X101998751Y-56856984D01*
X101999952Y-56787909D01*
X102002009Y-56733069D01*
X102004974Y-56696850D01*
X102005147Y-56695571D01*
X102010137Y-56659491D01*
X102013532Y-56639911D01*
X102015705Y-56638609D01*
X102017025Y-56657367D01*
X102017865Y-56697963D01*
X102018594Y-56762179D01*
X102019812Y-56822538D01*
X102040239Y-57094501D01*
X102084661Y-57359168D01*
X102152559Y-57615646D01*
X102243411Y-57863043D01*
X102356697Y-58100467D01*
X102491898Y-58327026D01*
X102648493Y-58541826D01*
X102825961Y-58743978D01*
X103023783Y-58932587D01*
X103241438Y-59106762D01*
X103478406Y-59265610D01*
X103703525Y-59391830D01*
X103967572Y-59512877D01*
X104240970Y-59611043D01*
X104522361Y-59686092D01*
X104810386Y-59737787D01*
X105103686Y-59765890D01*
X105400903Y-59770164D01*
X105700677Y-59750372D01*
X106001650Y-59706276D01*
X106004662Y-59705711D01*
X106275494Y-59643123D01*
X106537901Y-59559368D01*
X106790566Y-59455580D01*
X107032168Y-59332893D01*
X107261391Y-59192441D01*
X107476913Y-59035358D01*
X107677418Y-58862779D01*
X107861586Y-58675836D01*
X108028098Y-58475665D01*
X108175636Y-58263399D01*
X108302881Y-58040173D01*
X108408514Y-57807120D01*
X108491216Y-57565374D01*
X108492652Y-57560378D01*
X108555642Y-57296921D01*
X108593280Y-57035028D01*
X108605566Y-56774691D01*
X108592500Y-56515899D01*
X108554080Y-56258643D01*
X108490307Y-56002913D01*
X108401180Y-55748699D01*
X108365492Y-55664184D01*
X108249868Y-55433706D01*
X108111881Y-55212602D01*
X107952973Y-55002387D01*
X107774589Y-54804577D01*
X107578173Y-54620686D01*
X107365166Y-54452230D01*
X107137014Y-54300724D01*
X107003092Y-54227056D01*
X107278000Y-54227056D01*
X107278394Y-54228238D01*
X107292360Y-54240508D01*
X107322305Y-54260200D01*
X107362740Y-54283647D01*
X107443570Y-54330895D01*
X107543998Y-54395151D01*
X107648966Y-54467157D01*
X107751132Y-54541859D01*
X107843150Y-54614204D01*
X107848132Y-54618312D01*
X107964310Y-54720268D01*
X108083377Y-54835480D01*
X108200446Y-54958609D01*
X108310630Y-55084312D01*
X108409042Y-55207248D01*
X108490795Y-55322075D01*
X108491816Y-55323624D01*
X108516227Y-55359690D01*
X108534751Y-55385337D01*
X108543449Y-55395100D01*
X108543737Y-55394894D01*
X108545681Y-55379772D01*
X108547080Y-55343124D01*
X108547967Y-55288377D01*
X108548371Y-55218960D01*
X108548325Y-55138301D01*
X108547858Y-55049829D01*
X108547001Y-54956972D01*
X108545786Y-54863159D01*
X108544242Y-54771819D01*
X108542401Y-54686379D01*
X108540294Y-54610269D01*
X108537952Y-54546916D01*
X108535404Y-54499750D01*
X108527610Y-54398490D01*
X108499798Y-54138042D01*
X108460762Y-53886517D01*
X108408927Y-53633118D01*
X108407039Y-53624798D01*
X108389544Y-53545698D01*
X108375995Y-53488838D01*
X108363190Y-53452343D01*
X108347925Y-53434337D01*
X108327000Y-53432942D01*
X108297211Y-53446283D01*
X108255357Y-53472484D01*
X108198236Y-53509669D01*
X108132830Y-53552234D01*
X108056518Y-53603302D01*
X107982736Y-53653920D01*
X107921016Y-53697626D01*
X107871707Y-53733336D01*
X107825388Y-53766764D01*
X107789307Y-53792679D01*
X107768616Y-53807371D01*
X107739832Y-53828424D01*
X107694544Y-53863646D01*
X107640669Y-53907074D01*
X107581354Y-53956017D01*
X107519744Y-54007786D01*
X107458983Y-54059689D01*
X107402216Y-54109036D01*
X107352590Y-54153136D01*
X107313248Y-54189300D01*
X107287337Y-54214837D01*
X107278000Y-54227056D01*
X107003092Y-54227056D01*
X106895159Y-54167684D01*
X106761294Y-54104064D01*
X106553331Y-54017588D01*
X106344889Y-53946993D01*
X106130175Y-53890620D01*
X105903394Y-53846811D01*
X105658750Y-53813908D01*
X105493650Y-53795814D01*
X105665100Y-53801299D01*
X105762371Y-53805968D01*
X106022852Y-53832711D01*
X106289763Y-53879749D01*
X106558158Y-53946101D01*
X106823086Y-54030786D01*
X106920621Y-54065663D01*
X106956436Y-54022469D01*
X107038865Y-53925307D01*
X107227561Y-53717771D01*
X107426223Y-53518053D01*
X107631232Y-53329402D01*
X107838971Y-53155068D01*
X108045820Y-52998301D01*
X108248162Y-52862349D01*
X108250916Y-52860629D01*
X108307217Y-52826685D01*
X108370923Y-52790135D01*
X108437840Y-52753175D01*
X108503775Y-52718006D01*
X108564535Y-52686826D01*
X108615925Y-52661832D01*
X108653753Y-52645224D01*
X108673825Y-52639200D01*
X108680729Y-52642079D01*
X108697137Y-52662777D01*
X108718885Y-52704409D01*
X108746544Y-52768132D01*
X108780686Y-52855100D01*
X108813989Y-52948309D01*
X108869885Y-53132733D01*
X108916999Y-53325940D01*
X108953104Y-53518286D01*
X108975971Y-53700129D01*
X108978042Y-53726061D01*
X108982614Y-53812614D01*
X108985439Y-53915634D01*
X108986590Y-54029889D01*
X108986140Y-54150150D01*
X108984165Y-54271188D01*
X108980737Y-54387771D01*
X108975929Y-54494671D01*
X108969817Y-54586657D01*
X108962472Y-54658500D01*
X108942976Y-54795223D01*
X108893059Y-55077507D01*
X108860734Y-55218960D01*
X108832704Y-55341625D01*
G37*
%TD*%
%LPC*%
D12*
%TO.C,J1*%
X93980000Y-63500000D03*
D13*
X93980000Y-60960000D03*
X93980000Y-58420000D03*
X93980000Y-55880000D03*
X93980000Y-53340000D03*
X93980000Y-50800000D03*
%TD*%
D12*
%TO.C,J2*%
X118110000Y-63500000D03*
D13*
X118110000Y-60960000D03*
X118110000Y-58420000D03*
X118110000Y-55880000D03*
X118110000Y-53340000D03*
X118110000Y-50800000D03*
%TD*%
%LPD*%
M02*
